<?xml version="1.0" encoding="utf-8"?>
<!-- Generator: Adobe Illustrator 22.1.0, SVG Export Plug-In . SVG Version: 6.00 Build 0)  -->
<svg version="1.1" id="레이어_1" xmlns="http://www.w3.org/2000/svg" xmlns:xlink="http://www.w3.org/1999/xlink" x="0px"
	 y="0px" viewBox="0 0 300 300" style="enable-background:new 0 0 300 300;" xml:space="preserve">
<style type="text/css">
	.st0{fill:url(#SVGID_1_);}
	.st1{opacity:0.99;}
	.st2{fill:url(#SVGID_2_);}
	.st3{fill:none;stroke:#EEACC9;stroke-width:15;stroke-miterlimit:10;}
	.st4{fill-rule:evenodd;clip-rule:evenodd;fill:none;stroke:url(#SVGID_3_);stroke-width:15;stroke-miterlimit:10;}
</style>
<g>
	<linearGradient id="SVGID_1_" gradientUnits="userSpaceOnUse" x1="0" y1="150" x2="300" y2="150">
		<stop  offset="4.108136e-07" style="stop-color:#FFAFB0"/>
		<stop  offset="1" style="stop-color:#CAA6FE"/>
	</linearGradient>
	<path class="st0" d="M150,20c34.7,0,67.4,13.5,91.9,38.1C266.5,82.6,280,115.3,280,150s-13.5,67.4-38.1,91.9
		C217.4,266.5,184.7,280,150,280s-67.4-13.5-91.9-38.1C33.5,217.4,20,184.7,20,150s13.5-67.4,38.1-91.9C82.6,33.5,115.3,20,150,20
		 M150,0C67.2,0,0,67.2,0,150s67.2,150,150,150s150-67.2,150-150S232.8,0,150,0L150,0z"/>
</g>
<g>
	<g class="st1">
		<linearGradient id="SVGID_2_" gradientUnits="userSpaceOnUse" x1="84" y1="149.5" x2="215" y2="149.5">
			<stop  offset="4.108136e-07" style="stop-color:#FFAFB0"/>
			<stop  offset="1" style="stop-color:#CAA6FE"/>
		</linearGradient>
		<path class="st2" d="M200,86v127H99.8c-0.4,0-0.8-0.3-0.8-0.8V86.8c0-0.4,0.3-0.8,0.8-0.8H200 M215,71H99.8
			C91.1,71,84,78.1,84,86.8v125.5c0,8.7,7.1,15.8,15.8,15.8H215V71L215,71z"/>
	</g>
	<g>
		<line class="st3" x1="121.5" y1="81" x2="121.5" y2="191.5"/>
	</g>
	<linearGradient id="SVGID_3_" gradientUnits="userSpaceOnUse" x1="84" y1="206.5" x2="214" y2="206.5">
		<stop  offset="4.108136e-07" style="stop-color:#FFAFB0"/>
		<stop  offset="1" style="stop-color:#CAA6FE"/>
	</linearGradient>
	<path class="st4" d="M104.5,193.5h101c0.6,0,1,0.4,1,1v24c0,0.6-0.4,1-1,1h-101c-7.1,0-13-5.8-13-13v0
		C91.5,199.3,97.3,193.5,104.5,193.5z"/>
</g>
</svg>
