<?xml version="1.0" encoding="utf-8"?>
<!-- Generator: Adobe Illustrator 22.1.0, SVG Export Plug-In . SVG Version: 6.00 Build 0)  -->
<svg version="1.1" id="레이어_1" xmlns="http://www.w3.org/2000/svg" xmlns:xlink="http://www.w3.org/1999/xlink" x="0px"
	 y="0px" viewBox="0 0 300 100" style="enable-background:new 0 0 300 100;" xml:space="preserve">
<style type="text/css">
	.st0{fill:url(#SVGID_1_);}
	.st1{fill:url(#SVGID_2_);}
	.st2{fill:url(#SVGID_3_);}
	.st3{fill:url(#SVGID_4_);}
	.st4{fill:url(#SVGID_5_);}
	.st5{fill:url(#SVGID_6_);}
	.st6{fill:url(#SVGID_7_);}
	.st7{fill:url(#SVGID_8_);}
	.st8{fill:url(#SVGID_9_);}
	.st9{fill:url(#SVGID_10_);}
	.st10{fill:url(#SVGID_11_);}
	.st11{fill:#FFFFFF;stroke:#FFFFFF;stroke-miterlimit:10;}
</style>
<g>
	<linearGradient id="SVGID_1_" gradientUnits="userSpaceOnUse" x1="5.4609" y1="46.133" x2="44.632" y2="46.133">
		<stop  offset="4.108136e-07" style="stop-color:#FFAFB0"/>
		<stop  offset="1" style="stop-color:#CAA6FE"/>
	</linearGradient>
	<path class="st0" d="M17.2,70.3c-1.2,0-2.3-0.2-3.4-0.4c-1.7-0.3-3.1-0.9-4.3-1.9c-0.9-0.7-1.7-1.6-2.3-2.6c-0.2-0.3-0.4-0.6-0.5-1
		c-0.3-0.6-0.5-1.2-0.7-1.8l-0.2-0.5l-0.1-0.6c-0.1-0.4-0.1-0.7-0.2-1.1c0-0.4-0.1-0.8-0.1-1.2V32.7c0-0.7,0.1-1.4,0.3-2.1
		c0.1-0.8,0.3-1.5,0.6-2.2c0.6-1.6,1.6-3,2.9-4c0.7-0.6,1.5-1,2.3-1.4l0.8-0.3l0.2-0.1c0.5-0.2,1-0.3,1.5-0.4l0.4-0.2l9.5,0.2
		c3.3,0.1,6.2,0.9,8.8,2.3c2.4,1.3,4.5,3,6.2,5.1c1.7,2,3,4.2,3.9,6.6c0.9,2.3,1.4,4.7,1.6,7.1c0.1,1.4,0.1,2.8,0,4.2
		c-0.1,1.3-0.2,2.5-0.4,3.7c-0.5,2.6-1.3,5-2.4,7.3c-1.4,2.7-3.3,5-5.9,6.9c-2.5,1.8-5.4,3.1-8.5,3.8c-2.4,0.5-4.9,0.8-7.3,0.9
		c-0.7,0.1-1.5,0.1-2.2,0.1L17.2,70.3z"/>
	<linearGradient id="SVGID_2_" gradientUnits="userSpaceOnUse" x1="33.1621" y1="46.1627" x2="54.3882" y2="46.1627">
		<stop  offset="4.108136e-07" style="stop-color:#FFAFB0"/>
		<stop  offset="1" style="stop-color:#CAA6FE"/>
	</linearGradient>
	<path class="st1" d="M43.3,69.6c-3.7-0.2-6.7-2.1-8.4-5.2c-1-1.8-1.5-3.9-1.6-6.5l-0.1-5.4c0-1,0-1.9,0-2.9v-2.4c0-0.4,0-0.8,0-1.4
		c0-0.8,0-1.6,0-2.4c0.1-1,0.2-2.1,0.4-3c0.2-1.1,0.6-2,1-3c-0.4-0.8-0.7-1.8-0.8-2.7c-0.4-2-0.2-4.1,0.7-6c0.8-1.9,2.2-3.5,4-4.6
		c1.6-0.9,3.4-1.4,5.2-1.4l0.6,0c2,0.1,3.9,0.8,5.7,2.1c1.5,1.1,2.7,2.5,3.5,4.2c0.9,1.9,1.2,3.9,0.8,5.9c-0.2,1.1-0.6,2.2-1.1,3.2
		c0.2,0.6,0.4,1.2,0.5,1.9c0.1,0.5,0.2,1,0.2,1.6c0.1,0.6,0.1,1.2,0.1,1.8c0,0.6,0,1,0,1.5c0,0.8,0,1.7,0,2.8c0,1.1,0,2.2,0,3.4v3.4
		c0,1.2,0,2.3,0,3.3c0,0.8-0.1,1.4-0.2,2.1c-0.1,1.2-0.4,2.4-0.9,3.4c-0.7,1.7-1.8,3.2-3.3,4.3c-1.7,1.3-3.7,1.9-6,1.9L43.3,69.6z"
		/>
	<linearGradient id="SVGID_3_" gradientUnits="userSpaceOnUse" x1="42.8896" y1="51.8994" x2="80.5593" y2="51.8994">
		<stop  offset="4.108136e-07" style="stop-color:#FFAFB0"/>
		<stop  offset="1" style="stop-color:#CAA6FE"/>
	</linearGradient>
	<path class="st2" d="M60,69.5c-0.5,0-0.9,0-1.4,0c-1.4-0.1-2.8-0.4-4.3-0.8c-2.5-0.6-4.8-1.9-6.6-3.7c-1.6-1.6-2.8-3.4-3.6-5.5
		c-0.8-1.9-1.2-4-1.2-6.2c0-2,0.2-4,0.7-5.9c0.7-2.6,1.8-5,3.4-6.9c1.5-1.9,3.4-3.3,5.5-4.4c1.4-0.7,3-1.3,4.7-1.6
		c1.1-0.2,2.3-0.3,3.4-0.3c0.6,0,1.2,0,1.8,0.1c1.8,0.2,3.5,0.7,5.2,1.4c1.7,0.8,3.3,1.8,4.7,3.2c1.5,1.5,2.7,3.2,3.5,4.9
		c0.7,1.6,1.2,3.3,1.5,5.1c0,0.2,0.1,0.4,0.1,0.5c0.2,0.5,0.5,1.1,0.7,1.6c0.4,0.8,0.7,1.5,1,2.3c0.4,1,0.8,2.1,1.1,3.2l0.1,0.3
		c0.5,2.1,0.3,4.4-0.5,6.4c-1.2,3.1-3.8,5.2-7.2,5.9c-0.6,0.1-1.3,0.2-1.9,0.2c-1.2,0-2.5-0.2-3.6-0.7c-0.2-0.1-0.3-0.1-0.5-0.2
		c-1.1,0.4-2.4,0.8-3.7,0.9C61.9,69.5,61,69.5,60,69.5z"/>
	<linearGradient id="SVGID_4_" gradientUnits="userSpaceOnUse" x1="69.1225" y1="51.0156" x2="102.8387" y2="51.0156">
		<stop  offset="4.108136e-07" style="stop-color:#FFAFB0"/>
		<stop  offset="1" style="stop-color:#CAA6FE"/>
	</linearGradient>
	<path class="st3" d="M78.7,70.3c-2.6-0.2-5-1.4-6.8-3.5c-1.3-1.5-2.1-3.2-2.4-5l-0.1-0.4c-0.1-0.6-0.2-1.4-0.2-2.3
		c0-0.7-0.1-1.4-0.1-2.2c0-0.7,0-1.5,0-2.3v-9.9c0-0.6,0-1.3,0.1-1.9c0-0.8,0.1-1.5,0.2-2.2c0.2-1.1,0.4-2.1,0.8-3
		c1.1-2.5,3-4.4,5.4-5.3c1.3-0.5,2.7-0.8,4.2-0.8l0.4,0c1.9,0,3.7,0.5,5.2,1.4c0.1,0,0.2,0.1,0.2,0.1c0.4-0.1,0.8-0.1,1.2-0.2
		c0.7-0.1,1.3-0.1,1.9-0.1c0.3,0,0.7,0,1,0c1.3,0.1,2.6,0.3,4,0.8l0.3,0.1c0.9,0.4,1.9,0.8,2.8,1.4c1.1,0.7,2.1,1.5,2.9,2.4
		c1.2,1.3,2.1,2.9,2.6,4.6c0.6,2.3,0.4,4.7-0.7,7l-0.2,0.3c-2.5,4.5-6.4,5-8,5c-1.1,0-2.1-0.1-3-0.3v1.3c0,0.9,0,1.8,0,2.7
		c0,1.6-0.3,3.2-0.7,4.6c-0.7,2.1-1.9,3.9-3.5,5.2c-1.3,1.1-3.5,2.3-6.8,2.3C79.3,70.3,79,70.3,78.7,70.3z"/>
	<linearGradient id="SVGID_5_" gradientUnits="userSpaceOnUse" x1="89.3753" y1="56.399" x2="125.792" y2="56.399">
		<stop  offset="4.108136e-07" style="stop-color:#FFAFB0"/>
		<stop  offset="1" style="stop-color:#CAA6FE"/>
	</linearGradient>
	<path class="st4" d="M103.3,79.9c-2.4,0-4.6-0.8-6.4-2.2c-1.2-0.9-2.3-2-3-3.4L93.7,74l-0.1-0.2c-0.6-1.3-0.9-2.7-0.9-4.2V69
		l0.1-0.6c0-0.4,0.1-0.8,0.2-1.2l0.1-0.7l0.1-0.3c0.1-0.6,0.4-1.1,0.6-1.6c0.2-0.3,0.3-0.7,0.5-1l1.6-3.4c0,0-1.7-3.9-2.1-5
		c-0.4-1-0.8-1.9-1.3-2.8c-0.4-0.9-0.8-1.7-1.3-2.5c-0.3-0.5-0.6-1.1-0.8-1.7c-0.3-0.7-0.6-1.4-0.7-2.1c-0.3-1.2-0.4-2.4-0.3-3.6
		c0.1-1.6,0.6-3,1.5-4.4c1-1.7,2.4-3,4.1-3.9c1.4-0.7,3-1.1,4.6-1.1l0.3,0c1.4,0,2.8,0.4,4.2,1c1.4,0.6,2.5,1.5,3.4,2.5
		c0.3-0.4,0.6-0.7,0.9-1l0.3-0.3l0.3-0.3c0.3-0.2,0.5-0.4,0.8-0.6c0.9-0.6,1.8-1.1,2.9-1.3c0.6-0.2,1.3-0.3,1.9-0.3l0.3,0l0.5,0
		c0.5,0,1.1,0,1.6,0.1l0.5,0.1l0.5,0.1c0.5,0.2,1.2,0.4,1.9,0.7c1.9,0.7,3.5,2.2,4.6,4.1c1,1.6,1.5,3.5,1.4,5.4c0,1.7-0.4,3.2-1,4.6
		c-0.1,0.2-0.5,1.1-0.5,1.1c-0.2,0.5-0.4,1-0.6,1.4l-0.1,0.3l-1.3,2.9c-0.4,1-0.9,2-1.4,3c-0.5,1-1,1.9-1.4,2.8l-1.4,2.9
		c-0.2,0.6-0.5,1.1-0.7,1.5l-2,4.4c-0.4,0.9-0.8,1.6-1.1,2.3c-0.4,0.9-0.9,1.9-1.4,2.8l-0.1,0.2l-0.1,0.3l-0.3,0.5
		c-0.6,1.1-1.5,2.1-2.6,3c-1.7,1.4-3.7,2.2-5.7,2.4L103.3,79.9z"/>
	<linearGradient id="SVGID_6_" gradientUnits="userSpaceOnUse" x1="130.7636" y1="48.7272" x2="167.6879" y2="48.7272">
		<stop  offset="4.108136e-07" style="stop-color:#FFAFB0"/>
		<stop  offset="1" style="stop-color:#CAA6FE"/>
	</linearGradient>
	<path class="st5" d="M141.3,72.5c-1.7,0-3.4-0.4-4.9-1.2l-0.4-0.2c-0.7-0.4-1.4-0.9-2-1.5c-0.7-0.7-1.4-1.7-1.8-2.7
		c-0.1-0.2-0.2-0.4-0.2-0.5c-0.4-0.7-0.6-1.5-0.8-2.3l-0.2-1l0-0.5l0-0.3c-0.1-0.7-0.1-1.3-0.1-2l0-4.1l0-6.5c0-1.1,0-2,0-2.9v-3.1
		c0-1,0-2.1,0-3.1c0-0.9,0.1-1.8,0.1-2.9l0-0.9c0-0.6,0.1-1.3,0.2-2c0.2-1.3,0.5-2.6,1-3.8c0.6-1.3,1.3-2.4,2.3-3.3l3.2-1.7l6.7-1
		c0.2,0,0.4,0,0.7,0c0.4,0,1,0,1.8,0c1.2,0,2.4,0,3.6,0c1.2,0,4,0,4,0s0.7,0,0.9,0c0.5,0,0.9,0,1.4,0.1c0.8,0,1.5,0.1,2.3,0.3
		c0.6,0.1,1.2,0.3,1.7,0.5c2,0.6,3.7,1.8,4.9,3.4c1.1,1.4,1.7,3.1,2,4.9l0.1,0.5v0.5c0,0.4,0,0.8-0.1,1.2c0,0.4-0.1,0.7-0.1,1
		c-0.3,2-1.3,3.8-2.8,5.2c1.1,1.6,1.7,3.5,1.7,5.4v0.5c0,0.8-0.1,1.6-0.3,2.4c-0.4,1.6-1.3,3.1-2.6,4.4l-0.2,0.2l-0.2,0.2
		c-1.1,0.9-2.3,1.6-3.7,2c-0.3,0.1-0.7,0.2-1,0.3c-0.4,0.1-0.8,0.2-1.2,0.2c-0.4,0.1-0.7,0.1-1.1,0.1c-0.4,0-0.8,0-1.2,0l-3,0l0,3.4
		c0,0.4,0,0.8-0.1,1.2c0,0.4-0.1,0.7-0.2,1.1l-0.1,0.7l-0.2,0.5c-0.1,0.4-0.2,0.7-0.4,1.1l-0.1,0.3l-0.1,0.3
		c-0.7,1.4-1.5,2.4-2.5,3.3l-0.2,0.2l-0.2,0.2c-1.2,0.9-2.7,1.5-4.3,1.8C142.9,72.4,142.1,72.5,141.3,72.5z"/>
	<linearGradient id="SVGID_7_" gradientUnits="userSpaceOnUse" x1="153.574" y1="53.9883" x2="190.3656" y2="53.9883">
		<stop  offset="4.108136e-07" style="stop-color:#FFAFB0"/>
		<stop  offset="1" style="stop-color:#CAA6FE"/>
	</linearGradient>
	<path class="st6" d="M172.1,72.7c-0.5,0-1.1,0-1.6-0.1c-3-0.2-5.7-1-8.1-2.4c-2.4-1.4-4.3-3.3-5.8-5.5c-1.4-2.2-2.4-4.6-2.8-7.3
		c-0.4-2.7-0.3-5.4,0.5-8.1c0.8-2.8,2-5.3,3.6-7.3c1.6-2,3.6-3.6,5.9-4.7c1.5-0.7,3.2-1.3,5-1.6c1.2-0.2,2.4-0.3,3.5-0.3
		c0.7,0,1.4,0,2,0.1c1.9,0.2,3.7,0.7,5.4,1.5c1.8,0.8,3.5,1.9,5,3.4c1.3,1.3,2.4,2.8,3.3,4.5c0.8,1.4,1.3,2.9,1.7,4.3
		c0.9,2.9,1,5.8,0.3,8.7c-0.5,2.5-1.5,4.9-2.8,7.1c-0.9,1.5-1.9,2.6-3.1,3.6c-1.1,1-2.3,1.7-3.6,2.4c-1.6,0.8-3.3,1.3-5.1,1.5
		C174.3,72.6,173.2,72.7,172.1,72.7z"/>
	<linearGradient id="SVGID_8_" gradientUnits="userSpaceOnUse" x1="178.8736" y1="53.5455" x2="212.5898" y2="53.5455">
		<stop  offset="4.108136e-07" style="stop-color:#FFAFB0"/>
		<stop  offset="1" style="stop-color:#CAA6FE"/>
	</linearGradient>
	<path class="st7" d="M188.5,72.8c-2.6-0.2-5-1.4-6.8-3.5c-1.3-1.5-2.1-3.2-2.4-5l-0.1-0.4c-0.1-0.6-0.2-1.4-0.2-2.3
		c0-0.7-0.1-1.4-0.1-2.2c0-0.7,0-1.5,0-2.3v-9.9c0-0.6,0-1.3,0.1-1.9c0-0.8,0.1-1.5,0.2-2.2c0.2-1.1,0.4-2.1,0.8-3
		c1.1-2.5,3-4.4,5.4-5.3c1.3-0.5,2.7-0.8,4.2-0.8l0.4,0c1.9,0,3.7,0.5,5.2,1.4c0.1,0,0.2,0.1,0.2,0.1c0.4-0.1,0.8-0.1,1.2-0.2
		c0.7-0.1,1.3-0.1,1.9-0.1c0.3,0,0.7,0,1,0c1.3,0.1,2.6,0.3,4,0.8l0.3,0.1c0.9,0.4,1.9,0.8,2.8,1.4c1.1,0.7,2.1,1.5,2.9,2.4
		c1.2,1.3,2.1,2.9,2.6,4.6c0.6,2.3,0.4,4.7-0.7,7l-0.2,0.3c-2.5,4.5-6.4,5-8,5c-1.1,0-2.1-0.1-3-0.3V58c0,0.9,0,1.8,0,2.7
		c0,1.6-0.3,3.2-0.7,4.6c-0.7,2.1-1.9,3.9-3.5,5.2c-1.3,1.1-3.5,2.3-6.8,2.3C189,72.9,188.7,72.9,188.5,72.8z"/>
	<linearGradient id="SVGID_9_" gradientUnits="userSpaceOnUse" x1="212.4442" y1="48.5746" x2="252.1452" y2="48.5746">
		<stop  offset="4.108136e-07" style="stop-color:#FFAFB0"/>
		<stop  offset="1" style="stop-color:#CAA6FE"/>
	</linearGradient>
	<path class="st8" d="M232.4,72.4c-0.7,0-1.4-0.1-2.2-0.2c-2-0.3-3.4-1.1-4.4-1.9c-0.7-0.5-1.3-1.2-1.9-1.9c-0.2-0.2-0.4-0.6-0.7-1
		l-0.4-0.7l-0.3-0.8c-0.2-0.5-0.3-0.9-0.4-1.3c-0.3-0.8-0.4-1.7-0.4-2.5V51.6l-5.7-8l-0.5-0.9c-0.1-0.2-0.2-0.3-0.4-0.5
		c-0.5-0.7-0.9-1.3-1.2-2c-0.3-0.5-0.5-1-0.7-1.5c-0.2-0.4-0.3-0.8-0.4-1.2c-0.4-1.4-0.5-3-0.2-4.5c0.5-2,1.4-3.6,2.6-4.9l0.3-0.3
		c0.7-0.6,1.5-1.2,2.3-1.6c1.5-0.9,3.2-1.4,4.9-1.4c0.2,0,0.5,0,0.7,0c1.4,0.1,2.7,0.4,3.8,1c0.5,0.2,0.9,0.5,1.4,0.8l0.3,0.2
		l0.3,0.2c0.5,0.4,0.9,0.7,1.3,1.1c0.6,0.5,1.1,1.1,1.5,1.7l0.2,0.2c0,0,0.1-0.1,0.1-0.1c0.9-1.3,2.1-2.3,3.5-3.2
		c1.3-0.9,2.8-1.4,4.3-1.7l0.3,0l0.3,0c0.4,0,0.7-0.1,1.1-0.1c2,0,3.8,0.6,5.4,1.7c0.8,0.4,1.5,1,2.1,1.6l0.3,0.3
		c0.8,1,1.5,2.1,2,3.3l0.2,0.6l0.1,0.6c0.2,0.9,0.2,1.8,0.1,2.7c-0.1,0.8-0.3,1.6-0.6,2.4c-0.2,0.6-0.4,1.2-0.6,1.7
		c-0.3,0.8-0.9,1.7-1.5,2.5l-0.5,0.8l-0.7,1l-5.4,7.8v11l-0.2,0.5c0,0.1-0.2,1-0.2,1l-0.1,0.3v0.6l-1.1,2.3l-0.1,0.1
		c-0.7,1.2-1.6,2.2-2.8,3l-0.5,0.4l-0.6,0.3C235.7,72,234,72.4,232.4,72.4z"/>
	<linearGradient id="SVGID_10_" gradientUnits="userSpaceOnUse" x1="235.3132" y1="53.9883" x2="272.1054" y2="53.9883">
		<stop  offset="4.108136e-07" style="stop-color:#FFAFB0"/>
		<stop  offset="1" style="stop-color:#CAA6FE"/>
	</linearGradient>
	<path class="st9" d="M253.9,72.7c-0.5,0-1.1,0-1.6-0.1c-3-0.2-5.7-1-8.1-2.4c-2.4-1.4-4.3-3.3-5.8-5.5c-1.4-2.2-2.4-4.6-2.8-7.3
		c-0.4-2.7-0.3-5.4,0.5-8.1c0.8-2.8,2-5.3,3.6-7.3c1.6-2,3.6-3.6,5.9-4.7c1.5-0.7,3.2-1.3,5-1.6c1.2-0.2,2.4-0.3,3.5-0.3
		c0.7,0,1.4,0,2,0.1c1.9,0.2,3.7,0.7,5.4,1.5c1.8,0.8,3.5,1.9,5,3.4c1.3,1.3,2.4,2.8,3.3,4.5c0.7,1.4,1.3,2.9,1.7,4.3
		c0.9,2.9,1,5.8,0.3,8.7c-0.5,2.5-1.5,4.9-2.8,7.1c-0.9,1.5-2,2.6-3.1,3.7c-1.1,0.9-2.3,1.7-3.6,2.4c-1.6,0.8-3.3,1.3-5.1,1.5
		C256,72.6,254.9,72.7,253.9,72.7z"/>
	<linearGradient id="SVGID_11_" gradientUnits="userSpaceOnUse" x1="260.6131" y1="54.0581" x2="294.5392" y2="54.0581">
		<stop  offset="4.108136e-07" style="stop-color:#FFAFB0"/>
		<stop  offset="1" style="stop-color:#CAA6FE"/>
	</linearGradient>
	<path class="st10" d="M276.9,72.9c-1.6,0-3.2-0.3-4.7-0.7c-1.6-0.4-3.1-1.1-4.4-1.9c-1.7-1.1-3.1-2.5-4.2-4.2
		c-0.8-1.3-1.4-2.7-1.9-4.2c-0.4-1.3-0.7-2.7-0.8-4.1c-0.1-1.1-0.2-2.1-0.2-3c-0.1-2.2-0.1-4.4,0-6.7v-1.1c0-0.9,0.1-1.8,0.2-2.7
		c0.2-1.1,0.5-2.2,1-3.3c0.9-2,2.4-3.6,4.4-4.6c1.4-0.8,3.1-1.2,4.8-1.2c1.7,0,3.3,0.4,4.8,1.2c0.5,0.2,1,0.6,1.5,1.1
		c0.4-0.3,0.7-0.5,1.1-0.7c1.5-0.9,3.2-1.3,5-1.4l0.3,0c1.7,0,3.3,0.4,4.8,1.1c2.3,1.1,3.9,3.1,4.8,5.4c0.4,1.1,0.6,2.2,0.8,3.6
		c0.1,0.9,0.2,1.9,0.2,3c0,1,0,2,0,3c0,1,0,1.9-0.1,2.7l-0.2,3.2c-0.1,1.5-0.3,3.1-0.7,4.5c-0.5,1.8-1.3,3.4-2.3,4.9
		c-1.3,1.9-3.1,3.3-5.2,4.3c-1.3,0.7-3,1.2-4.7,1.5c-1.3,0.2-2.5,0.3-3.8,0.3L276.9,72.9z"/>
</g>
<g>
	<path class="st11" d="M34.5,43.9c0.1,1,0.1,2,0,3.1c-0.1,1.1-0.2,2.1-0.3,3.1c-0.3,1.7-0.9,3.4-1.7,5.1c-0.8,1.6-2,3-3.6,4.2
		c-1.6,1.2-3.5,2-5.6,2.5c-2.1,0.4-4.2,0.7-6.2,0.8c-0.7,0.1-1.4,0.1-2.1,0.1c-0.7,0-1.4-0.1-2.1-0.3c-0.5-0.1-1-0.3-1.2-0.5
		c-0.2-0.1-0.3-0.2-0.4-0.4c-0.1-0.2-0.2-0.3-0.2-0.5c-0.1-0.2-0.2-0.3-0.2-0.5c0-0.2-0.1-0.3-0.2-0.5c0-0.2-0.1-0.3-0.1-0.4
		c0-0.1,0-0.3,0-0.4v-26c0-0.2,0-0.4,0-0.6c0-0.2,0-0.4,0.1-0.5c0.1-0.4,0.2-0.8,0.3-1c0.1-0.4,0.3-0.6,0.5-0.8
		c0.2-0.2,0.4-0.3,0.5-0.3c0.2-0.1,0.3-0.1,0.5-0.2c0.2-0.1,0.4-0.1,0.6,0c0.2,0,0.4,0,0.7-0.1l7.6,0.2c2,0.1,3.8,0.5,5.4,1.4
		c1.6,0.9,2.9,2,4.1,3.3c1.1,1.3,2,2.8,2.6,4.5C34,40.6,34.4,42.3,34.5,43.9z M26,52.5c0.6-0.9,1-2,1.3-3.1c0.3-1.2,0.4-2.4,0.4-3.6
		c0-1.2-0.2-2.4-0.5-3.6c-0.3-1.2-0.7-2.2-1.3-3.1c-0.4-0.7-1-1.2-1.6-1.6c-0.7-0.4-1.4-0.8-2.2-1c-0.8-0.2-1.7-0.4-2.6-0.5
		c-0.9-0.1-1.8-0.1-2.7-0.1c0,0.9,0,1.7,0,2.5c0,0.8,0,1.7,0,2.6c0,1.1,0,2.2,0,3.2c0,1,0,2,0,3v9.3c0.9,0,1.8-0.1,2.7-0.2
		c0.9-0.1,1.7-0.2,2.5-0.5c0.8-0.3,1.5-0.7,2.2-1.2C24.8,54.1,25.4,53.4,26,52.5z"/>
	<path class="st11" d="M43.9,44.9c0,0.8,0,1.8,0,2.9c0,1.1,0,2.2,0,3.3c0,1.1,0,2.3,0,3.4c0,1.1,0,2.1,0,3.1c0,0.5-0.1,0.9-0.1,1.5
		c-0.1,0.5-0.2,1-0.4,1.5c-0.2,0.5-0.5,0.8-0.8,1.1c-0.4,0.3-0.9,0.4-1.5,0.4c-0.9-0.1-1.6-0.5-2-1.2c-0.4-0.8-0.6-1.8-0.7-3.2
		c0-0.7,0-1.5,0-2.4c0-0.9,0-1.8,0-2.8c0-0.9,0-1.9,0-2.8s0-1.7,0-2.4c0-0.4,0-0.9,0-1.5c0-0.6,0-1.2,0-1.9c0-0.6,0.1-1.3,0.2-1.8
		c0.1-0.6,0.3-1.1,0.6-1.5c0.2-0.2,0.5-0.4,0.9-0.6c0.4-0.1,0.8-0.2,1.3-0.2c0.4,0,0.9,0.1,1.3,0.2c0.4,0.2,0.7,0.4,0.9,0.6
		c0.1,0.2,0.2,0.4,0.3,0.8c0.1,0.3,0.1,0.7,0.2,1.1c0,0.4,0.1,0.8,0.1,1.3C43.9,44.2,43.9,44.6,43.9,44.9z M42.2,35.7
		c-0.9,0.2-1.7,0.1-2.3-0.3c-0.6-0.4-1-1.1-1.2-2c-0.1-0.6-0.1-1.2,0.1-1.7c0.2-0.5,0.5-0.9,1-1.1c0.4-0.3,0.9-0.4,1.5-0.3
		c0.5,0,1.1,0.2,1.6,0.6c0.5,0.4,0.9,0.8,1.1,1.3c0.2,0.5,0.3,1,0.2,1.4c-0.1,0.5-0.3,0.9-0.6,1.3C43.3,35.3,42.8,35.6,42.2,35.7z"
		/>
	<path class="st11" d="M53.3,43c0.9-0.5,1.9-0.8,2.9-1s2-0.2,3-0.1c1,0.1,1.9,0.4,2.8,0.8c0.9,0.4,1.8,1,2.5,1.8
		c0.8,0.8,1.4,1.7,1.8,2.6c0.4,0.9,0.7,2,0.9,3.1c0.1,0.8,0.3,1.5,0.6,2.2s0.6,1.3,0.9,2c0.3,0.7,0.6,1.3,0.9,2s0.5,1.4,0.7,2.1
		c0.2,0.7,0.1,1.4-0.2,2c-0.3,0.7-0.8,1.1-1.6,1.2c-0.5,0.1-0.9,0-1.3-0.1c-0.4-0.2-0.8-0.4-1.1-0.7c-0.3-0.3-0.6-0.7-0.9-1
		c-0.3-0.4-0.5-0.7-0.7-1.1c-0.7,0.9-1.5,1.6-2.3,2.1c-0.8,0.5-1.8,0.8-3,1c-1,0.1-1.9,0.2-2.8,0.1c-0.9-0.1-1.8-0.2-2.8-0.5
		c-1.3-0.3-2.4-0.9-3.2-1.8c-0.8-0.8-1.5-1.8-1.9-2.9c-0.4-1.1-0.7-2.3-0.7-3.6c0-1.3,0.1-2.5,0.5-3.8c0.4-1.6,1.1-3,1.9-4
		C51.2,44.4,52.2,43.6,53.3,43z M54.4,48.3c-0.4,0.4-0.8,0.9-1,1.5C53.2,50.4,53,51,53,51.7c0,0.6,0,1.3,0.2,1.9s0.4,1.2,0.7,1.7
		c0.3,0.4,0.8,0.8,1.5,1.1c0.7,0.3,1.5,0.5,2.3,0.5c0.9,0.1,1.7-0.2,2.4-0.7c0.7-0.5,1.2-1.2,1.5-2.1c0.3-0.8,0.5-1.7,0.5-2.7
		c0-1-0.3-1.8-0.8-2.6c-0.4-0.6-0.8-1-1.4-1.3c-0.6-0.3-1.2-0.4-1.9-0.4c-0.7,0-1.3,0.1-2,0.3C55.4,47.6,54.8,47.9,54.4,48.3z"/>
	<path class="st11" d="M74.2,46.1c0-0.4,0-0.8,0-1.3c0-0.5,0-1,0-1.5c0-0.5,0.1-1,0.2-1.5c0.1-0.5,0.2-0.9,0.3-1.3
		c0.2-0.5,0.6-0.9,1.1-1.1c0.5-0.2,1.1-0.3,1.7-0.2c0.6,0,1.1,0.1,1.5,0.3c0.4,0.2,0.6,0.5,0.8,0.8c0.2,0.3,0.3,0.7,0.3,1.2
		c0,0.4,0.1,0.9,0.1,1.4c0.3-0.5,0.6-0.9,1.1-1.2c0.5-0.3,0.9-0.5,1.4-0.7c0.5-0.2,0.9-0.3,1.3-0.4c0.4-0.1,0.6-0.1,0.7-0.1
		c0.8-0.1,1.4-0.1,2.1,0c0.6,0,1.3,0.2,2.1,0.4c0.5,0.2,1,0.4,1.5,0.8c0.5,0.3,1,0.7,1.4,1.1c0.4,0.4,0.7,0.9,0.8,1.4
		c0.1,0.5,0.1,1-0.2,1.6c-0.4,0.8-0.9,1.1-1.4,1.1c-0.5,0-1.1-0.1-1.7-0.2c-0.3-0.1-0.7-0.2-1.2-0.4c-0.5-0.2-0.9-0.3-1.2-0.4
		c-1-0.2-1.9-0.1-2.7,0.2c-0.8,0.3-1.5,0.7-2,1.1c-0.7,0.5-1.2,1.1-1.7,1.8v6.6c0,0.8,0,1.7,0,2.6c0,0.9-0.1,1.7-0.4,2.4
		c-0.2,0.7-0.6,1.3-1.1,1.7c-0.5,0.4-1.3,0.6-2.3,0.6c-0.5,0-1-0.3-1.5-0.8c-0.4-0.5-0.7-1-0.8-1.5c-0.1-0.5-0.1-1-0.1-1.6
		c0-0.6-0.1-1.3-0.1-2c0-0.7,0-1.4,0-2.1c0-0.7,0-1.4,0-2V46.1z"/>
	<path class="st11" d="M115.3,41.9c0.3,0.4,0.4,0.9,0.4,1.4c0,0.7-0.1,1.3-0.4,1.8c-0.1,0.2-0.1,0.3-0.3,0.6
		c-0.1,0.2-0.2,0.5-0.3,0.8c-0.1,0.3-0.2,0.5-0.3,0.8c-0.1,0.2-0.2,0.4-0.3,0.5L114,48c-0.4,0.9-0.8,1.9-1.2,2.7
		c-0.4,0.9-0.8,1.8-1.3,2.8c-0.5,1-0.9,1.9-1.4,2.8c-0.4,0.9-0.9,1.8-1.3,2.7c-0.1,0.2-0.2,0.5-0.3,0.7c-0.1,0.2-0.2,0.5-0.4,0.7
		l-2.2,4.7c-0.4,0.8-0.8,1.6-1.1,2.3c-0.3,0.8-0.7,1.5-1.2,2.3c-0.1,0.2-0.2,0.3-0.3,0.4c-0.1,0.1-0.1,0.3-0.2,0.4
		c-0.2,0.4-0.5,0.7-0.9,1.1c-0.4,0.3-0.8,0.5-1.3,0.6c-0.8,0.1-1.5-0.2-2.1-0.7c-0.4-0.2-0.7-0.5-0.9-0.9c-0.1-0.3-0.2-0.6-0.2-1
		c0-0.2,0.1-0.4,0.1-0.5c0-0.2,0-0.3,0.1-0.5c0.1-0.2,0.1-0.3,0.1-0.5c0-0.2,0.1-0.3,0.1-0.4c0.1-0.2,0.2-0.4,0.2-0.4l3.3-7.2
		c-0.2-0.3-0.3-0.7-0.5-1c-0.2-0.3-0.3-0.7-0.4-0.9c-0.4-0.9-0.8-1.9-1.3-3c-0.4-1-0.9-2.1-1.3-3.1c-0.5-1-0.9-2.1-1.4-3.1
		c-0.5-1-1-2-1.5-2.9c-0.2-0.3-0.3-0.6-0.5-1c-0.2-0.3-0.3-0.7-0.4-1c-0.1-0.3-0.1-0.7-0.1-1.1c0-0.4,0.2-0.7,0.4-1.1
		c0.2-0.5,0.6-0.8,1-1c0.4-0.2,0.8-0.3,1.3-0.3s0.9,0.1,1.3,0.3c0.4,0.2,0.7,0.4,1,0.7c0.5,0.5,0.9,1.2,1.2,1.8
		c0.3,0.7,0.6,1.4,0.9,2c0.6,1.2,1.2,2.5,1.8,3.8c0.6,1.3,1.2,2.6,1.8,3.9l2.4-5c0.2-0.5,0.5-1,0.7-1.4c0.2-0.5,0.4-0.9,0.6-1.3
		c0.2-0.5,0.5-1,0.7-1.6c0.2-0.5,0.5-1,0.8-1.5c0.1-0.1,0.1-0.2,0.2-0.3c0.1-0.1,0.1-0.2,0.2-0.3c0.3-0.4,0.5-0.7,0.7-0.9
		c0.2-0.1,0.3-0.2,0.4-0.3c0.1-0.1,0.2-0.1,0.4-0.2c0.2-0.1,0.4-0.1,0.6-0.1c0.2,0,0.4,0,0.6,0c0.3,0.1,0.7,0.2,1.1,0.4
		C114.7,41.1,115.1,41.4,115.3,41.9z"/>
	<path class="st11" d="M157.1,33.8c0.3,0.4,0.4,0.8,0.5,1.3c0,0.2,0,0.4,0,0.5c0,0.2,0,0.3-0.1,0.5c0,0.3-0.2,0.7-0.6,1
		c-0.2,0.2-0.5,0.3-0.8,0.5c-0.2,0.1-0.4,0.1-0.6,0.1s-0.4,0-0.7,0.1c-0.2,0.1-0.4,0.1-0.6,0.1c-0.2,0-0.4,0-0.6,0h-2l-9.5,0V38
		l0,7.4c0.2,0,0.5,0,0.8,0c0.3,0,0.6,0,1.1,0c1.2,0,2.3,0,3.3,0s2,0,3.2,0h0.3c0.3,0,0.7,0,1,0c0.3,0,0.7,0,1.1,0
		c0.3,0,0.7,0.1,1,0.1c0.3,0,0.7,0.1,1,0.3c0.5,0.2,0.9,0.5,1.2,0.9c0.3,0.4,0.5,0.8,0.5,1.2c0,0.2,0,0.4,0,0.5c0,0.2,0,0.3-0.1,0.5
		c0,0.2-0.2,0.5-0.6,0.9c-0.2,0.2-0.5,0.3-0.9,0.4c-0.2,0.1-0.3,0.1-0.5,0.2c-0.2,0-0.4,0.1-0.6,0.1c-0.2,0-0.4,0.1-0.6,0.1
		c-0.2,0-0.4,0-0.7,0h-2.1l-8.4,0l-0.1,10.6v0.4c0,0.2,0,0.3,0,0.4c0,0.1,0,0.3-0.1,0.4c-0.1,0.2-0.1,0.3-0.2,0.5
		c0,0.2-0.1,0.3-0.2,0.5c-0.2,0.4-0.4,0.7-0.6,0.9c-0.3,0.2-0.7,0.4-1.2,0.5c-0.8,0.2-1.6,0.1-2.3-0.3c-0.2-0.1-0.3-0.2-0.4-0.3
		c-0.1-0.1-0.3-0.3-0.3-0.5c-0.1-0.1-0.1-0.2-0.1-0.3l-0.1-0.3c-0.1-0.2-0.2-0.3-0.2-0.5c0-0.2-0.1-0.3-0.1-0.5c0-0.2,0-0.3,0-0.5
		c0-0.2,0-0.3-0.1-0.5c0-0.2,0-0.5,0-0.7v-0.7l0-3.6l0-6.6c0-1,0-2,0-3c0-1,0-2,0-3.1c0-1.1,0-2.1,0-2.9c0-0.8,0.1-1.8,0.1-2.8v-0.2
		c0-0.3,0-0.6,0-0.9c0-0.3,0-0.6,0.1-0.9c0.1-0.7,0.2-1.3,0.5-1.8c0.2-0.5,0.5-0.9,0.9-1.1c0.5-0.3,0.9-0.4,1.5-0.4
		c0.2,0,0.4,0,0.6,0v0c0.5,0,1,0,1.3,0c0.3,0,0.7,0,1,0c0.3,0,0.6,0,1,0c0.4,0,0.8,0,1.5,0c2.4,0,4.8,0,7.2,0h0.2c0.3,0,0.7,0,1,0
		s0.7,0,1.1,0c0.3,0,0.7,0,1,0.1c0.3,0.1,0.7,0.2,1,0.3C156.4,33.2,156.8,33.5,157.1,33.8z"/>
	<path class="st11" d="M164.5,44.1c1-0.5,2-0.8,3.1-1c1.1-0.2,2.2-0.3,3.3-0.1c1.1,0.1,2.1,0.4,3.1,0.9c1,0.5,2,1.1,2.8,1.9
		c0.7,0.7,1.3,1.5,1.8,2.5c0.5,1,0.9,1.9,1.1,2.9c0.5,1.7,0.6,3.4,0.2,5.1c-0.4,1.7-1,3.3-1.9,4.7c-0.4,0.7-0.9,1.3-1.6,1.8
		c-0.6,0.5-1.3,1-2,1.3c-0.9,0.4-1.9,0.7-3,0.9c-1.1,0.2-2.1,0.2-3.1,0.1c-1.8-0.1-3.4-0.5-4.8-1.4c-1.4-0.8-2.5-1.9-3.3-3.1
		c-0.8-1.3-1.4-2.7-1.6-4.3c-0.3-1.6-0.2-3.3,0.3-5c0.5-1.8,1.2-3.3,2.1-4.4C162.1,45.6,163.2,44.7,164.5,44.1z M165.9,50.2
		c-0.5,0.4-0.8,1-1,1.6c-0.2,0.6-0.4,1.3-0.5,2c-0.1,0.7,0,1.4,0.2,2s0.4,1.3,0.8,1.8c0.3,0.5,0.8,0.8,1.6,1.1
		c0.8,0.3,1.6,0.5,2.5,0.5c1,0.1,1.8-0.2,2.6-0.8s1.3-1.3,1.7-2.2c0.4-0.9,0.6-1.8,0.5-2.9c0-1-0.3-2-0.8-2.8
		c-0.4-0.6-0.9-1.1-1.5-1.3c-0.7-0.3-1.3-0.4-2-0.5c-0.7,0-1.4,0.1-2.1,0.3C166.9,49.4,166.3,49.8,165.9,50.2z"/>
	<path class="st11" d="M183.9,48.6c0-0.4,0-0.8,0-1.3s0-1,0-1.5c0-0.5,0.1-1,0.2-1.5c0.1-0.5,0.2-0.9,0.3-1.3
		c0.2-0.5,0.6-0.9,1.1-1.1c0.5-0.2,1.1-0.3,1.7-0.2c0.6,0,1.1,0.1,1.5,0.3s0.6,0.5,0.8,0.8c0.2,0.3,0.3,0.7,0.3,1.2
		c0,0.4,0.1,0.9,0.1,1.4c0.3-0.5,0.6-0.9,1.1-1.2c0.5-0.3,0.9-0.5,1.4-0.7c0.5-0.2,0.9-0.3,1.3-0.4c0.4-0.1,0.6-0.1,0.7-0.1
		c0.8-0.1,1.4-0.1,2.1,0c0.6,0,1.3,0.2,2.1,0.4c0.5,0.2,1,0.4,1.5,0.8c0.5,0.3,1,0.7,1.4,1.1c0.4,0.4,0.7,0.9,0.8,1.4
		c0.1,0.5,0.1,1-0.2,1.6c-0.4,0.8-0.9,1.1-1.4,1.1s-1.1-0.1-1.7-0.2c-0.3-0.1-0.7-0.2-1.2-0.4c-0.5-0.2-0.9-0.3-1.2-0.4
		c-1-0.2-1.9-0.1-2.7,0.2c-0.8,0.3-1.5,0.7-2,1.1c-0.7,0.5-1.2,1.1-1.7,1.8V58c0,0.8,0,1.7,0,2.6c0,0.9-0.1,1.7-0.4,2.4
		c-0.2,0.7-0.6,1.3-1.1,1.7c-0.5,0.4-1.3,0.6-2.3,0.6c-0.5,0-1-0.3-1.5-0.8c-0.4-0.5-0.7-1-0.8-1.5c-0.1-0.5-0.1-1-0.1-1.6
		c0-0.6-0.1-1.3-0.1-2c0-0.7,0-1.4,0-2.1c0-0.7,0-1.4,0-2V48.6z"/>
	<path class="st11" d="M242,34.4c0,0.2,0,0.3,0,0.5c0,0.2-0.1,0.3-0.2,0.5c-0.1,0.4-0.3,0.8-0.4,1.1c-0.2,0.4-0.4,0.8-0.7,1.1
		c-0.1,0.2-0.2,0.4-0.3,0.5c-0.1,0.2-0.2,0.3-0.3,0.5l-0.6,0.8l-5.8,8.4l-1,1.3v12.1c-0.1,0.1-0.1,0.3-0.1,0.5c0,0.2,0,0.3,0,0.5
		c-0.1,0.2-0.1,0.3-0.1,0.4c0,0.1-0.1,0.3-0.1,0.4c-0.1,0.1-0.1,0.2-0.1,0.3c0,0.1-0.1,0.1-0.1,0.1c0,0,0,0.1-0.1,0.1
		c-0.2,0.3-0.4,0.6-0.8,0.8c-0.7,0.3-1.4,0.4-2.3,0.2c-0.5-0.1-0.8-0.2-1.1-0.5c-0.2-0.1-0.3-0.2-0.4-0.3c-0.1-0.1-0.2-0.3-0.3-0.4
		c-0.1-0.2-0.1-0.3-0.2-0.5c-0.1-0.2-0.1-0.3-0.1-0.5c-0.1-0.2-0.1-0.3-0.1-0.4c0-0.1,0-0.3,0-0.4V49.3l-1-1.5l-5.9-8.4l-0.5-0.8
		c-0.2-0.3-0.4-0.6-0.7-1c-0.2-0.3-0.5-0.7-0.6-1.1c-0.1-0.2-0.2-0.4-0.3-0.6c-0.1-0.2-0.1-0.4-0.2-0.6c-0.1-0.3-0.1-0.6,0-0.9
		c0.1-0.4,0.3-0.7,0.5-1c0.3-0.3,0.6-0.5,1-0.6c0.4-0.3,0.9-0.4,1.5-0.4c0.3,0,0.6,0.1,0.9,0.2c0.2,0.1,0.5,0.3,0.7,0.4
		c0.3,0.2,0.5,0.4,0.8,0.7c0.3,0.2,0.5,0.5,0.7,0.8c0.2,0.3,0.5,0.6,0.7,0.8s0.4,0.6,0.6,0.9l0.1,0.2c0.7,1,1.4,1.9,2,2.8
		c0.6,0.9,1.3,1.9,2,2.9c0.1,0.1,0.2,0.2,0.3,0.4c0.1,0.2,0.3,0.4,0.4,0.6c0.1-0.2,0.2-0.4,0.3-0.6c0.1-0.2,0.2-0.3,0.3-0.3
		c0.7-1,1.4-2,2-2.9c0.6-0.9,1.3-1.9,2-2.8l0.1-0.2c0.2-0.3,0.5-0.6,0.7-0.8c0.2-0.3,0.4-0.6,0.7-0.9c0.4-0.5,0.9-1,1.6-1.4
		c0.5-0.3,1-0.5,1.5-0.6c0.6-0.1,1.1,0.1,1.5,0.4c0.2,0.1,0.4,0.2,0.5,0.3c0.2,0.1,0.3,0.2,0.4,0.3C241.6,33.7,241.8,34,242,34.4z"
		/>
	<path class="st11" d="M246.2,44.1c1-0.5,2.1-0.8,3.1-1c1.1-0.2,2.2-0.3,3.3-0.1c1.1,0.1,2.1,0.4,3.1,0.9c1,0.5,1.9,1.1,2.8,1.9
		c0.7,0.7,1.3,1.5,1.8,2.5c0.5,1,0.9,1.9,1.1,2.9c0.5,1.7,0.6,3.4,0.2,5.1c-0.4,1.7-1,3.3-1.9,4.7c-0.4,0.7-0.9,1.3-1.6,1.8
		c-0.6,0.5-1.3,1-2,1.3c-0.9,0.4-1.9,0.7-3,0.9c-0.4,0.1-0.8,0.1-1.2,0.1c-0.6,0-1.3,0-1.9,0c-1.8-0.1-3.4-0.5-4.8-1.4
		c-1.4-0.8-2.5-1.9-3.3-3.1c-0.8-1.3-1.4-2.7-1.6-4.3c-0.3-1.6-0.2-3.3,0.3-5c0.5-1.8,1.2-3.3,2.1-4.4
		C243.9,45.6,245,44.7,246.2,44.1z M247.6,50.2c-0.5,0.4-0.8,1-1,1.6c-0.2,0.6-0.4,1.3-0.5,2c-0.1,0.7,0,1.4,0.2,2
		c0.2,0.7,0.4,1.3,0.8,1.8c0.3,0.5,0.8,0.8,1.6,1.1c0.8,0.3,1.6,0.5,2.5,0.5c1,0.1,1.8-0.2,2.6-0.8s1.3-1.3,1.7-2.2
		c0.4-0.9,0.6-1.8,0.5-2.9c0-1-0.3-2-0.8-2.8c-0.4-0.6-0.9-1.1-1.5-1.3c-0.7-0.3-1.3-0.4-2-0.5c-0.7,0-1.4,0.1-2.1,0.3
		C248.7,49.4,248.1,49.8,247.6,50.2z"/>
	<path class="st11" d="M287.6,53.9c-0.1,1-0.1,2-0.2,3c-0.1,1-0.2,2-0.5,2.9c-0.3,0.9-0.7,1.8-1.2,2.5c-0.5,0.8-1.3,1.4-2.3,1.8
		c-0.8,0.4-1.8,0.7-2.7,0.9c-1,0.2-1.9,0.2-2.9,0.2s-1.9-0.2-2.8-0.4c-0.9-0.3-1.7-0.6-2.5-1.1c-0.7-0.5-1.3-1-1.8-1.8
		c-0.5-0.7-0.8-1.5-1.1-2.4c-0.3-0.8-0.4-1.7-0.5-2.6c-0.1-0.9-0.2-1.8-0.2-2.5c-0.1-2.1-0.1-4.2,0-6.2c0-0.4,0-0.8,0-1.3
		c0-0.5,0-1,0.1-1.5s0.2-0.9,0.4-1.3c0.2-0.4,0.5-0.7,0.9-0.9c0.9-0.5,1.8-0.5,2.5-0.1c0.8,0.4,1.2,1.3,1.4,2.6
		c0.1,0.7,0.1,1.5,0.1,2.3c0,0.8,0,1.6,0.1,2.3c0,1,0.1,2.1,0.1,3.3c0,1.2,0.2,2.3,0.5,3.2c0.3,0.9,0.8,1.6,1.6,2.1
		c0.7,0.5,1.9,0.5,3.3,0.1c0.7-0.2,1.2-0.7,1.4-1.6c0.2-0.8,0.3-2.1,0.3-3.8c0-0.7,0-1.5,0-2.4c0-0.9,0-1.8,0-2.6s0-1.7,0.1-2.4
		c0-0.7,0.1-1.3,0.2-1.7c0.2-0.5,0.5-1,1-1.2c0.5-0.3,1-0.4,1.5-0.4c0.5,0,1.1,0.1,1.5,0.3c0.5,0.2,0.8,0.6,1,1.2
		c0.2,0.5,0.3,1.1,0.4,1.8c0.1,0.7,0.1,1.5,0.2,2.4c0,0.9,0,1.7,0,2.6C287.6,52.3,287.6,53.1,287.6,53.9z"/>
</g>
</svg>
