<?xml version="1.0" encoding="utf-8"?>
<!-- Generator: Adobe Illustrator 22.1.0, SVG Export Plug-In . SVG Version: 6.00 Build 0)  -->
<svg version="1.1" id="레이어_1" xmlns="http://www.w3.org/2000/svg" xmlns:xlink="http://www.w3.org/1999/xlink" x="0px"
	 y="0px" viewBox="0 0 300 400" style="enable-background:new 0 0 300 400;" xml:space="preserve">
<style type="text/css">
	.st0{fill:url(#SVGID_1_);}
	.st1{opacity:0.99;}
	.st2{fill:url(#SVGID_2_);}
	.st3{fill:none;stroke:#EEACC9;stroke-width:15;stroke-miterlimit:10;}
	.st4{fill-rule:evenodd;clip-rule:evenodd;fill:none;stroke:url(#SVGID_3_);stroke-width:15;stroke-miterlimit:10;}
	.st5{fill:url(#SVGID_4_);}
	.st6{fill:url(#SVGID_5_);}
	.st7{fill:url(#SVGID_6_);}
	.st8{fill:url(#SVGID_7_);}
	.st9{fill:url(#SVGID_8_);}
	.st10{fill:url(#SVGID_9_);}
	.st11{fill:url(#SVGID_10_);}
	.st12{fill:url(#SVGID_11_);}
	.st13{fill:url(#SVGID_12_);}
	.st14{fill:url(#SVGID_13_);}
	.st15{fill:url(#SVGID_14_);}
	.st16{fill:#FFFFFF;stroke:#FFFFFF;stroke-miterlimit:10;}
</style>
<g>
	<linearGradient id="SVGID_1_" gradientUnits="userSpaceOnUse" x1="9.094947e-13" y1="151" x2="300" y2="151">
		<stop  offset="4.108136e-07" style="stop-color:#FFAFB0"/>
		<stop  offset="1" style="stop-color:#CAA6FE"/>
	</linearGradient>
	<path class="st0" d="M150,21c34.7,0,67.4,13.5,91.9,38.1C266.5,83.6,280,116.3,280,151s-13.5,67.4-38.1,91.9
		C217.4,267.5,184.7,281,150,281s-67.4-13.5-91.9-38.1C33.5,218.4,20,185.7,20,151s13.5-67.4,38.1-91.9C82.6,34.5,115.3,21,150,21
		 M150,1C67.2,1,0,68.2,0,151s67.2,150,150,150s150-67.2,150-150S232.8,1,150,1L150,1z"/>
</g>
<g>
	<g class="st1">
		<linearGradient id="SVGID_2_" gradientUnits="userSpaceOnUse" x1="84" y1="150.5" x2="215" y2="150.5">
			<stop  offset="4.108136e-07" style="stop-color:#FFAFB0"/>
			<stop  offset="1" style="stop-color:#CAA6FE"/>
		</linearGradient>
		<path class="st2" d="M200,87v127H99.8c-0.4,0-0.8-0.3-0.8-0.8V87.8c0-0.4,0.3-0.8,0.8-0.8H200 M215,72H99.8
			C91.1,72,84,79.1,84,87.8v125.5c0,8.7,7.1,15.8,15.8,15.8H215V72L215,72z"/>
	</g>
	<g>
		<line class="st3" x1="121.5" y1="82" x2="121.5" y2="192.5"/>
	</g>
	<linearGradient id="SVGID_3_" gradientUnits="userSpaceOnUse" x1="84" y1="207.5" x2="214" y2="207.5">
		<stop  offset="4.108136e-07" style="stop-color:#FFAFB0"/>
		<stop  offset="1" style="stop-color:#CAA6FE"/>
	</linearGradient>
	<path class="st4" d="M104.5,194.5h101c0.6,0,1,0.4,1,1v24c0,0.6-0.4,1-1,1h-101c-7.1,0-13-5.8-13-13v0
		C91.5,200.3,97.3,194.5,104.5,194.5z"/>
</g>
<g>
	<g>
		<linearGradient id="SVGID_4_" gradientUnits="userSpaceOnUse" x1="4.4609" y1="332.133" x2="43.632" y2="332.133">
			<stop  offset="4.108136e-07" style="stop-color:#FFAFB0"/>
			<stop  offset="1" style="stop-color:#CAA6FE"/>
		</linearGradient>
		<path class="st5" d="M16.2,356.3c-1.2,0-2.3-0.2-3.4-0.4c-1.7-0.3-3.1-0.9-4.3-1.9c-0.9-0.7-1.7-1.6-2.3-2.6
			c-0.2-0.3-0.4-0.6-0.5-1c-0.3-0.6-0.5-1.2-0.7-1.8l-0.2-0.5l-0.1-0.6c-0.1-0.4-0.1-0.7-0.2-1.1c0-0.4-0.1-0.8-0.1-1.2v-26.6
			c0-0.7,0.1-1.4,0.3-2.1c0.1-0.8,0.3-1.5,0.6-2.2c0.6-1.6,1.6-3,2.9-4c0.7-0.6,1.5-1,2.3-1.4l0.8-0.3l0.2-0.1
			c0.5-0.2,1-0.3,1.5-0.4l0.4-0.2l9.5,0.2c3.3,0.1,6.2,0.9,8.8,2.3c2.4,1.3,4.5,3,6.2,5.1c1.7,2,3,4.2,3.9,6.6
			c0.9,2.3,1.4,4.7,1.6,7.1c0.1,1.4,0.1,2.8,0,4.2c-0.1,1.3-0.2,2.5-0.4,3.7c-0.5,2.6-1.3,5-2.4,7.3c-1.4,2.7-3.3,5-5.9,6.9
			c-2.5,1.8-5.4,3.1-8.5,3.8c-2.4,0.5-4.9,0.8-7.3,0.9c-0.7,0.1-1.5,0.1-2.2,0.1L16.2,356.3z"/>
		<linearGradient id="SVGID_5_" gradientUnits="userSpaceOnUse" x1="32.1621" y1="332.1627" x2="53.3882" y2="332.1627">
			<stop  offset="4.108136e-07" style="stop-color:#FFAFB0"/>
			<stop  offset="1" style="stop-color:#CAA6FE"/>
		</linearGradient>
		<path class="st6" d="M42.3,355.6c-3.7-0.2-6.7-2.1-8.4-5.2c-1-1.8-1.5-3.9-1.6-6.5l-0.1-5.4c0-1,0-1.9,0-2.9v-2.4
			c0-0.4,0-0.8,0-1.4c0-0.8,0-1.6,0-2.4c0.1-1,0.2-2.1,0.4-3c0.2-1.1,0.6-2,1-3c-0.4-0.8-0.7-1.8-0.8-2.7c-0.4-2-0.2-4.1,0.7-6
			c0.8-1.9,2.2-3.5,4-4.6c1.6-0.9,3.4-1.4,5.2-1.4l0.6,0c2,0.1,3.9,0.8,5.7,2.1c1.5,1.1,2.7,2.5,3.5,4.2c0.9,1.9,1.2,3.9,0.8,5.9
			c-0.2,1.1-0.6,2.2-1.1,3.2c0.2,0.6,0.4,1.2,0.5,1.9c0.1,0.5,0.2,1,0.2,1.6c0.1,0.6,0.1,1.2,0.1,1.8c0,0.6,0,1,0,1.5
			c0,0.8,0,1.7,0,2.8c0,1.1,0,2.2,0,3.4v3.4c0,1.2,0,2.3,0,3.3c0,0.8-0.1,1.4-0.2,2.1c-0.1,1.2-0.4,2.4-0.9,3.4
			c-0.7,1.7-1.8,3.2-3.3,4.3c-1.7,1.3-3.7,1.9-6,1.9L42.3,355.6z"/>
		<linearGradient id="SVGID_6_" gradientUnits="userSpaceOnUse" x1="41.8896" y1="337.8994" x2="79.5593" y2="337.8994">
			<stop  offset="4.108136e-07" style="stop-color:#FFAFB0"/>
			<stop  offset="1" style="stop-color:#CAA6FE"/>
		</linearGradient>
		<path class="st7" d="M59,355.5c-0.5,0-0.9,0-1.4,0c-1.4-0.1-2.8-0.4-4.3-0.8c-2.5-0.6-4.8-1.9-6.6-3.7c-1.6-1.6-2.8-3.4-3.6-5.5
			c-0.8-1.9-1.2-4-1.2-6.2c0-2,0.2-4,0.7-5.9c0.7-2.6,1.8-5,3.4-6.9c1.5-1.9,3.4-3.3,5.5-4.4c1.4-0.7,3-1.3,4.7-1.6
			c1.1-0.2,2.3-0.3,3.4-0.3c0.6,0,1.2,0,1.8,0.1c1.8,0.2,3.5,0.7,5.2,1.4c1.7,0.8,3.3,1.8,4.7,3.2c1.5,1.5,2.7,3.2,3.5,4.9
			c0.7,1.6,1.2,3.3,1.5,5.1c0,0.2,0.1,0.4,0.1,0.5c0.2,0.5,0.5,1.1,0.7,1.6c0.4,0.8,0.7,1.5,1,2.3c0.4,1,0.8,2.1,1.1,3.2l0.1,0.3
			c0.5,2.1,0.3,4.4-0.5,6.4c-1.2,3.1-3.8,5.2-7.2,5.9c-0.6,0.1-1.3,0.2-1.9,0.2c-1.2,0-2.5-0.2-3.6-0.7c-0.2-0.1-0.3-0.1-0.5-0.2
			c-1.1,0.4-2.4,0.8-3.7,0.9C60.9,355.5,60,355.5,59,355.5z"/>
		<linearGradient id="SVGID_7_" gradientUnits="userSpaceOnUse" x1="68.1225" y1="337.0156" x2="101.8387" y2="337.0156">
			<stop  offset="4.108136e-07" style="stop-color:#FFAFB0"/>
			<stop  offset="1" style="stop-color:#CAA6FE"/>
		</linearGradient>
		<path class="st8" d="M77.7,356.3c-2.6-0.2-5-1.4-6.8-3.5c-1.3-1.5-2.1-3.2-2.4-5l-0.1-0.4c-0.1-0.6-0.2-1.4-0.2-2.3
			c0-0.7-0.1-1.4-0.1-2.2c0-0.7,0-1.5,0-2.3v-9.9c0-0.6,0-1.3,0.1-1.9c0-0.8,0.1-1.5,0.2-2.2c0.2-1.1,0.4-2.1,0.8-3
			c1.1-2.5,3-4.4,5.4-5.3c1.3-0.5,2.7-0.8,4.2-0.8l0.4,0c1.9,0,3.7,0.5,5.2,1.4c0.1,0,0.2,0.1,0.2,0.1c0.4-0.1,0.8-0.1,1.2-0.2
			c0.7-0.1,1.3-0.1,1.9-0.1c0.3,0,0.7,0,1,0c1.3,0.1,2.6,0.3,4,0.8l0.3,0.1c0.9,0.4,1.9,0.8,2.8,1.4c1.1,0.7,2.1,1.5,2.9,2.4
			c1.2,1.3,2.1,2.9,2.6,4.6c0.6,2.3,0.4,4.7-0.7,7l-0.2,0.3c-2.5,4.5-6.4,5-8,5c-1.1,0-2.1-0.1-3-0.3v1.3c0,0.9,0,1.8,0,2.7
			c0,1.6-0.3,3.2-0.7,4.6c-0.7,2.1-1.9,3.9-3.5,5.2c-1.3,1.1-3.5,2.3-6.8,2.3C78.3,356.3,78,356.3,77.7,356.3z"/>
		<linearGradient id="SVGID_8_" gradientUnits="userSpaceOnUse" x1="88.3753" y1="342.399" x2="124.792" y2="342.399">
			<stop  offset="4.108136e-07" style="stop-color:#FFAFB0"/>
			<stop  offset="1" style="stop-color:#CAA6FE"/>
		</linearGradient>
		<path class="st9" d="M102.3,365.9c-2.4,0-4.6-0.8-6.4-2.2c-1.2-0.9-2.3-2-3-3.4l-0.1-0.2l-0.1-0.2c-0.6-1.3-0.9-2.7-0.9-4.2V355
			l0.1-0.6c0-0.4,0.1-0.8,0.2-1.2l0.1-0.7l0.1-0.3c0.1-0.6,0.4-1.1,0.6-1.6c0.2-0.3,0.3-0.7,0.5-1l1.6-3.4c0,0-1.7-3.9-2.1-5
			c-0.4-1-0.8-1.9-1.3-2.8c-0.4-0.9-0.8-1.7-1.3-2.5c-0.3-0.5-0.6-1.1-0.8-1.7c-0.3-0.7-0.6-1.4-0.7-2.1c-0.3-1.2-0.4-2.4-0.3-3.6
			c0.1-1.6,0.6-3,1.5-4.4c1-1.7,2.4-3,4.1-3.9c1.4-0.7,3-1.1,4.6-1.1l0.3,0c1.4,0,2.8,0.4,4.2,1c1.4,0.6,2.5,1.5,3.4,2.5
			c0.3-0.4,0.6-0.7,0.9-1l0.3-0.3l0.3-0.3c0.3-0.2,0.5-0.4,0.8-0.6c0.9-0.6,1.8-1.1,2.9-1.3c0.6-0.2,1.3-0.3,1.9-0.3l0.3,0l0.5,0
			c0.5,0,1.1,0,1.6,0.1l0.5,0.1l0.5,0.1c0.5,0.2,1.2,0.4,1.9,0.7c1.9,0.7,3.5,2.2,4.6,4.1c1,1.6,1.5,3.5,1.4,5.4
			c0,1.7-0.4,3.2-1,4.6c-0.1,0.2-0.5,1.1-0.5,1.1c-0.2,0.5-0.4,1-0.6,1.4l-0.1,0.3l-1.3,2.9c-0.4,1-0.9,2-1.4,3
			c-0.5,1-1,1.9-1.4,2.8l-1.4,2.9c-0.2,0.6-0.5,1.1-0.7,1.5l-2,4.4c-0.4,0.9-0.8,1.6-1.1,2.3c-0.4,0.9-0.9,1.9-1.4,2.8l-0.1,0.2
			l-0.1,0.3l-0.3,0.5c-0.6,1.1-1.5,2.1-2.6,3c-1.7,1.4-3.7,2.2-5.7,2.4L102.3,365.9z"/>
		<linearGradient id="SVGID_9_" gradientUnits="userSpaceOnUse" x1="129.7636" y1="334.7271" x2="166.6879" y2="334.7271">
			<stop  offset="4.108136e-07" style="stop-color:#FFAFB0"/>
			<stop  offset="1" style="stop-color:#CAA6FE"/>
		</linearGradient>
		<path class="st10" d="M140.3,358.5c-1.7,0-3.4-0.4-4.9-1.2l-0.4-0.2c-0.7-0.4-1.4-0.9-2-1.5c-0.7-0.7-1.4-1.7-1.8-2.7
			c-0.1-0.2-0.2-0.4-0.2-0.5c-0.4-0.7-0.6-1.5-0.8-2.3l-0.2-1l0-0.5l0-0.3c-0.1-0.7-0.1-1.3-0.1-2l0-4.1l0-6.5c0-1.1,0-2,0-2.9v-3.1
			c0-1,0-2.1,0-3.1c0-0.9,0.1-1.8,0.1-2.9l0-0.9c0-0.6,0.1-1.3,0.2-2c0.2-1.3,0.5-2.6,1-3.8c0.6-1.3,1.3-2.4,2.3-3.3l3.2-1.7l6.7-1
			c0.2,0,0.4,0,0.7,0c0.4,0,1,0,1.8,0c1.2,0,2.4,0,3.6,0c1.2,0,4,0,4,0s0.7,0,0.9,0c0.5,0,0.9,0,1.4,0.1c0.8,0,1.5,0.1,2.3,0.3
			c0.6,0.1,1.2,0.3,1.7,0.5c2,0.6,3.7,1.8,4.9,3.4c1.1,1.4,1.7,3.1,2,4.9l0.1,0.5v0.5c0,0.4,0,0.8-0.1,1.2c0,0.4-0.1,0.7-0.1,1
			c-0.3,2-1.3,3.8-2.8,5.2c1.1,1.6,1.7,3.5,1.7,5.4v0.5c0,0.8-0.1,1.6-0.3,2.4c-0.4,1.6-1.3,3.1-2.6,4.4l-0.2,0.2l-0.2,0.2
			c-1.1,0.9-2.3,1.6-3.7,2c-0.3,0.1-0.7,0.2-1,0.3c-0.4,0.1-0.8,0.2-1.2,0.2c-0.4,0.1-0.7,0.1-1.1,0.1c-0.4,0-0.8,0-1.2,0l-3,0
			l0,3.4c0,0.4,0,0.8-0.1,1.2c0,0.4-0.1,0.7-0.2,1.1l-0.1,0.7l-0.2,0.5c-0.1,0.4-0.2,0.7-0.4,1.1l-0.1,0.3l-0.1,0.3
			c-0.7,1.4-1.5,2.4-2.5,3.3l-0.2,0.2l-0.2,0.2c-1.2,0.9-2.7,1.5-4.3,1.8C141.9,358.4,141.1,358.5,140.3,358.5z"/>
		<linearGradient id="SVGID_10_" gradientUnits="userSpaceOnUse" x1="152.574" y1="339.9883" x2="189.3656" y2="339.9883">
			<stop  offset="4.108136e-07" style="stop-color:#FFAFB0"/>
			<stop  offset="1" style="stop-color:#CAA6FE"/>
		</linearGradient>
		<path class="st11" d="M171.1,358.7c-0.5,0-1.1,0-1.6-0.1c-3-0.2-5.7-1-8.1-2.4c-2.4-1.4-4.3-3.3-5.8-5.5c-1.4-2.2-2.4-4.6-2.8-7.3
			c-0.4-2.7-0.3-5.4,0.5-8.1c0.8-2.8,2-5.3,3.6-7.3c1.6-2,3.6-3.6,5.9-4.7c1.5-0.7,3.2-1.3,5-1.6c1.2-0.2,2.4-0.3,3.5-0.3
			c0.7,0,1.4,0,2,0.1c1.9,0.2,3.7,0.7,5.4,1.5c1.8,0.8,3.5,1.9,5,3.4c1.3,1.3,2.4,2.8,3.3,4.5c0.8,1.4,1.3,2.9,1.7,4.3
			c0.9,2.9,1,5.8,0.3,8.7c-0.5,2.5-1.5,4.9-2.8,7.1c-0.9,1.5-1.9,2.6-3.1,3.6c-1.1,1-2.3,1.7-3.6,2.4c-1.6,0.8-3.3,1.3-5.1,1.5
			C173.3,358.6,172.2,358.7,171.1,358.7z"/>
		<linearGradient id="SVGID_11_" gradientUnits="userSpaceOnUse" x1="177.8736" y1="339.5455" x2="211.5898" y2="339.5455">
			<stop  offset="4.108136e-07" style="stop-color:#FFAFB0"/>
			<stop  offset="1" style="stop-color:#CAA6FE"/>
		</linearGradient>
		<path class="st12" d="M187.5,358.8c-2.6-0.2-5-1.4-6.8-3.5c-1.3-1.5-2.1-3.2-2.4-5l-0.1-0.4c-0.1-0.6-0.2-1.4-0.2-2.3
			c0-0.7-0.1-1.4-0.1-2.2c0-0.7,0-1.5,0-2.3v-9.9c0-0.6,0-1.3,0.1-1.9c0-0.8,0.1-1.5,0.2-2.2c0.2-1.1,0.4-2.1,0.8-3
			c1.1-2.5,3-4.4,5.4-5.3c1.3-0.5,2.7-0.8,4.2-0.8l0.4,0c1.9,0,3.7,0.5,5.2,1.4c0.1,0,0.2,0.1,0.2,0.1c0.4-0.1,0.8-0.1,1.2-0.2
			c0.7-0.1,1.3-0.1,1.9-0.1c0.3,0,0.7,0,1,0c1.3,0.1,2.6,0.3,4,0.8l0.3,0.1c0.9,0.4,1.9,0.8,2.8,1.4c1.1,0.7,2.1,1.5,2.9,2.4
			c1.2,1.3,2.1,2.9,2.6,4.6c0.6,2.3,0.4,4.7-0.7,7l-0.2,0.3c-2.5,4.5-6.4,5-8,5c-1.1,0-2.1-0.1-3-0.3v1.3c0,0.9,0,1.8,0,2.7
			c0,1.6-0.3,3.2-0.7,4.6c-0.7,2.1-1.9,3.9-3.5,5.2c-1.3,1.1-3.5,2.3-6.8,2.3C188,358.9,187.7,358.9,187.5,358.8z"/>
		<linearGradient id="SVGID_12_" gradientUnits="userSpaceOnUse" x1="211.4442" y1="334.5746" x2="251.1452" y2="334.5746">
			<stop  offset="4.108136e-07" style="stop-color:#FFAFB0"/>
			<stop  offset="1" style="stop-color:#CAA6FE"/>
		</linearGradient>
		<path class="st13" d="M231.4,358.4c-0.7,0-1.4-0.1-2.2-0.2c-2-0.3-3.4-1.1-4.4-1.9c-0.7-0.5-1.3-1.2-1.9-1.9
			c-0.2-0.2-0.4-0.6-0.7-1l-0.4-0.7l-0.3-0.8c-0.2-0.5-0.3-0.9-0.4-1.3c-0.3-0.8-0.4-1.7-0.4-2.5v-10.5l-5.7-8l-0.5-0.9
			c-0.1-0.2-0.2-0.3-0.4-0.5c-0.5-0.7-0.9-1.3-1.2-2c-0.3-0.5-0.5-1-0.7-1.5c-0.2-0.4-0.3-0.8-0.4-1.2c-0.4-1.4-0.5-3-0.2-4.5
			c0.5-2,1.4-3.6,2.6-4.9l0.3-0.3c0.7-0.6,1.5-1.2,2.3-1.6c1.5-0.9,3.2-1.4,4.9-1.4c0.2,0,0.5,0,0.7,0c1.4,0.1,2.7,0.4,3.8,1
			c0.5,0.2,0.9,0.5,1.4,0.8l0.3,0.2l0.3,0.2c0.5,0.4,0.9,0.7,1.3,1.1c0.6,0.5,1.1,1.1,1.5,1.7l0.2,0.2c0,0,0.1-0.1,0.1-0.1
			c0.9-1.3,2.1-2.3,3.5-3.2c1.3-0.9,2.8-1.4,4.3-1.7l0.3,0l0.3,0c0.4,0,0.7-0.1,1.1-0.1c2,0,3.8,0.6,5.4,1.7c0.8,0.4,1.5,1,2.1,1.6
			l0.3,0.3c0.8,1,1.5,2.1,2,3.3l0.2,0.6l0.1,0.6c0.2,0.9,0.2,1.8,0.1,2.7c-0.1,0.8-0.3,1.6-0.6,2.4c-0.2,0.6-0.4,1.2-0.6,1.7
			c-0.3,0.8-0.9,1.7-1.5,2.5l-0.5,0.8l-0.7,1l-5.4,7.8v11l-0.2,0.5c0,0.1-0.2,1-0.2,1l-0.1,0.3v0.6l-1.1,2.3l-0.1,0.1
			c-0.7,1.2-1.6,2.2-2.8,3l-0.5,0.4l-0.6,0.3C234.7,358,233,358.4,231.4,358.4z"/>
		<linearGradient id="SVGID_13_" gradientUnits="userSpaceOnUse" x1="234.3132" y1="339.9883" x2="271.1054" y2="339.9883">
			<stop  offset="4.108136e-07" style="stop-color:#FFAFB0"/>
			<stop  offset="1" style="stop-color:#CAA6FE"/>
		</linearGradient>
		<path class="st14" d="M252.9,358.7c-0.5,0-1.1,0-1.6-0.1c-3-0.2-5.7-1-8.1-2.4c-2.4-1.4-4.3-3.3-5.8-5.5c-1.4-2.2-2.4-4.6-2.8-7.3
			c-0.4-2.7-0.3-5.4,0.5-8.1c0.8-2.8,2-5.3,3.6-7.3c1.6-2,3.6-3.6,5.9-4.7c1.5-0.7,3.2-1.3,5-1.6c1.2-0.2,2.4-0.3,3.5-0.3
			c0.7,0,1.4,0,2,0.1c1.9,0.2,3.7,0.7,5.4,1.5c1.8,0.8,3.5,1.9,5,3.4c1.3,1.3,2.4,2.8,3.3,4.5c0.7,1.4,1.3,2.9,1.7,4.3
			c0.9,2.9,1,5.8,0.3,8.7c-0.5,2.5-1.5,4.9-2.8,7.1c-0.9,1.5-2,2.6-3.1,3.7c-1.1,0.9-2.3,1.7-3.6,2.4c-1.6,0.8-3.3,1.3-5.1,1.5
			C255,358.6,253.9,358.7,252.9,358.7z"/>
		<linearGradient id="SVGID_14_" gradientUnits="userSpaceOnUse" x1="259.6131" y1="340.0581" x2="293.5392" y2="340.0581">
			<stop  offset="4.108136e-07" style="stop-color:#FFAFB0"/>
			<stop  offset="1" style="stop-color:#CAA6FE"/>
		</linearGradient>
		<path class="st15" d="M275.9,358.9c-1.6,0-3.2-0.3-4.7-0.7c-1.6-0.4-3.1-1.1-4.4-1.9c-1.7-1.1-3.1-2.5-4.2-4.2
			c-0.8-1.3-1.4-2.7-1.9-4.2c-0.4-1.3-0.7-2.7-0.8-4.1c-0.1-1.1-0.2-2.1-0.2-3c-0.1-2.2-0.1-4.4,0-6.7v-1.1c0-0.9,0.1-1.8,0.2-2.7
			c0.2-1.1,0.5-2.2,1-3.3c0.9-2,2.4-3.6,4.4-4.6c1.4-0.8,3.1-1.2,4.8-1.2c1.7,0,3.3,0.4,4.8,1.2c0.5,0.2,1,0.6,1.5,1.1
			c0.4-0.3,0.7-0.5,1.1-0.7c1.5-0.9,3.2-1.3,5-1.4l0.3,0c1.7,0,3.3,0.4,4.8,1.1c2.3,1.1,3.9,3.1,4.8,5.4c0.4,1.1,0.6,2.2,0.8,3.6
			c0.1,0.9,0.2,1.9,0.2,3c0,1,0,2,0,3c0,1,0,1.9-0.1,2.7l-0.2,3.2c-0.1,1.5-0.3,3.1-0.7,4.5c-0.5,1.8-1.3,3.4-2.3,4.9
			c-1.3,1.9-3.1,3.3-5.2,4.3c-1.3,0.7-3,1.2-4.7,1.5c-1.3,0.2-2.5,0.3-3.8,0.3L275.9,358.9z"/>
	</g>
	<g>
		<path class="st16" d="M33.5,329.9c0.1,1,0.1,2,0,3.1c-0.1,1.1-0.2,2.1-0.3,3.1c-0.3,1.7-0.9,3.4-1.7,5.1c-0.8,1.6-2,3-3.6,4.2
			c-1.6,1.2-3.5,2-5.6,2.5c-2.1,0.4-4.2,0.7-6.2,0.8c-0.7,0.1-1.4,0.1-2.1,0.1c-0.7,0-1.4-0.1-2.1-0.3c-0.5-0.1-1-0.3-1.2-0.5
			c-0.2-0.1-0.3-0.2-0.4-0.4c-0.1-0.2-0.2-0.3-0.2-0.5c-0.1-0.2-0.2-0.3-0.2-0.5c0-0.2-0.1-0.3-0.2-0.5c0-0.2-0.1-0.3-0.1-0.4
			c0-0.1,0-0.3,0-0.4v-26c0-0.2,0-0.4,0-0.6c0-0.2,0-0.4,0.1-0.5c0.1-0.4,0.2-0.8,0.3-1c0.1-0.4,0.3-0.6,0.5-0.8
			c0.2-0.2,0.4-0.3,0.5-0.3c0.2-0.1,0.3-0.1,0.5-0.2c0.2-0.1,0.4-0.1,0.6,0c0.2,0,0.4,0,0.7-0.1l7.6,0.2c2,0.1,3.8,0.5,5.4,1.4
			c1.6,0.9,2.9,2,4.1,3.3c1.1,1.3,2,2.8,2.6,4.5C33,326.6,33.4,328.3,33.5,329.9z M25,338.5c0.6-0.9,1-2,1.3-3.1
			c0.3-1.2,0.4-2.4,0.4-3.6c0-1.2-0.2-2.4-0.5-3.6c-0.3-1.2-0.7-2.2-1.3-3.1c-0.4-0.7-1-1.2-1.6-1.6c-0.7-0.4-1.4-0.8-2.2-1
			c-0.8-0.2-1.7-0.4-2.6-0.5c-0.9-0.1-1.8-0.1-2.7-0.1c0,0.9,0,1.7,0,2.5c0,0.8,0,1.7,0,2.6c0,1.1,0,2.2,0,3.2c0,1,0,2,0,3v9.3
			c0.9,0,1.8-0.1,2.7-0.2c0.9-0.1,1.7-0.2,2.5-0.5c0.8-0.3,1.5-0.7,2.2-1.2C23.8,340.1,24.4,339.4,25,338.5z"/>
		<path class="st16" d="M42.9,330.9c0,0.8,0,1.8,0,2.9c0,1.1,0,2.2,0,3.3c0,1.1,0,2.3,0,3.4s0,2.1,0,3.1c0,0.5-0.1,0.9-0.1,1.5
			c-0.1,0.5-0.2,1-0.4,1.5c-0.2,0.5-0.5,0.8-0.8,1.1c-0.4,0.3-0.9,0.4-1.5,0.4c-0.9-0.1-1.6-0.5-2-1.2c-0.4-0.8-0.6-1.8-0.7-3.2
			c0-0.7,0-1.5,0-2.4c0-0.9,0-1.8,0-2.8c0-0.9,0-1.9,0-2.8c0-0.9,0-1.7,0-2.4c0-0.4,0-0.9,0-1.5c0-0.6,0-1.2,0-1.9
			c0-0.6,0.1-1.3,0.2-1.8c0.1-0.6,0.3-1.1,0.6-1.5c0.2-0.2,0.5-0.4,0.9-0.6c0.4-0.1,0.8-0.2,1.3-0.2c0.4,0,0.9,0.1,1.3,0.2
			c0.4,0.2,0.7,0.4,0.9,0.6c0.1,0.2,0.2,0.4,0.3,0.8c0.1,0.3,0.1,0.7,0.2,1.1c0,0.4,0.1,0.8,0.1,1.3
			C42.9,330.2,42.9,330.6,42.9,330.9z M41.2,321.7c-0.9,0.2-1.7,0.1-2.3-0.3c-0.6-0.4-1-1.1-1.2-2c-0.1-0.6-0.1-1.2,0.1-1.7
			c0.2-0.5,0.5-0.9,1-1.1c0.4-0.3,0.9-0.4,1.5-0.3c0.5,0,1.1,0.2,1.6,0.6c0.5,0.4,0.9,0.8,1.1,1.3c0.2,0.5,0.3,1,0.2,1.4
			c-0.1,0.5-0.3,0.9-0.6,1.3C42.3,321.3,41.8,321.6,41.2,321.7z"/>
		<path class="st16" d="M52.3,329c0.9-0.5,1.9-0.8,2.9-1c1-0.2,2-0.2,3-0.1c1,0.1,1.9,0.4,2.8,0.8c0.9,0.4,1.8,1,2.5,1.8
			c0.8,0.8,1.4,1.7,1.8,2.6c0.4,0.9,0.7,2,0.9,3.1c0.1,0.8,0.3,1.5,0.6,2.2c0.3,0.7,0.6,1.3,0.9,2c0.3,0.7,0.6,1.3,0.9,2
			c0.3,0.7,0.5,1.4,0.7,2.1c0.2,0.7,0.1,1.4-0.2,2c-0.3,0.7-0.8,1.1-1.6,1.2c-0.5,0.1-0.9,0-1.3-0.1c-0.4-0.2-0.8-0.4-1.1-0.7
			c-0.3-0.3-0.6-0.7-0.9-1c-0.3-0.4-0.5-0.7-0.7-1.1c-0.7,0.9-1.5,1.6-2.3,2.1c-0.8,0.5-1.8,0.8-3,1c-1,0.1-1.9,0.2-2.8,0.1
			c-0.9-0.1-1.8-0.2-2.8-0.5c-1.3-0.3-2.4-0.9-3.2-1.8c-0.8-0.8-1.5-1.8-1.9-2.9c-0.4-1.1-0.7-2.3-0.7-3.6c0-1.3,0.1-2.5,0.5-3.8
			c0.4-1.6,1.1-3,1.9-4C50.2,330.4,51.2,329.6,52.3,329z M53.4,334.3c-0.4,0.4-0.8,0.9-1,1.5c-0.2,0.6-0.4,1.2-0.4,1.8
			c0,0.6,0,1.3,0.2,1.9s0.4,1.2,0.7,1.7c0.3,0.4,0.8,0.8,1.5,1.1c0.7,0.3,1.5,0.5,2.3,0.5c0.9,0.1,1.7-0.2,2.4-0.7
			c0.7-0.5,1.2-1.2,1.5-2.1c0.3-0.8,0.5-1.7,0.5-2.7c0-1-0.3-1.8-0.8-2.6c-0.4-0.6-0.8-1-1.4-1.3c-0.6-0.3-1.2-0.4-1.9-0.4
			c-0.7,0-1.3,0.1-2,0.3C54.4,333.6,53.8,333.9,53.4,334.3z"/>
		<path class="st16" d="M73.2,332.1c0-0.4,0-0.8,0-1.3c0-0.5,0-1,0-1.5c0-0.5,0.1-1,0.2-1.5c0.1-0.5,0.2-0.9,0.3-1.3
			c0.2-0.5,0.6-0.9,1.1-1.1c0.5-0.2,1.1-0.3,1.7-0.2c0.6,0,1.1,0.1,1.5,0.3c0.4,0.2,0.6,0.5,0.8,0.8c0.2,0.3,0.3,0.7,0.3,1.2
			c0,0.4,0.1,0.9,0.1,1.4c0.3-0.5,0.6-0.9,1.1-1.2c0.5-0.3,0.9-0.5,1.4-0.7c0.5-0.2,0.9-0.3,1.3-0.4c0.4-0.1,0.6-0.1,0.7-0.1
			c0.8-0.1,1.4-0.1,2.1,0c0.6,0,1.3,0.2,2.1,0.4c0.5,0.2,1,0.4,1.5,0.8c0.5,0.3,1,0.7,1.4,1.1c0.4,0.4,0.7,0.9,0.8,1.4
			c0.1,0.5,0.1,1-0.2,1.6c-0.4,0.8-0.9,1.1-1.4,1.1c-0.5,0-1.1-0.1-1.7-0.2c-0.3-0.1-0.7-0.2-1.2-0.4c-0.5-0.2-0.9-0.3-1.2-0.4
			c-1-0.2-1.9-0.1-2.7,0.2c-0.8,0.3-1.5,0.7-2,1.1c-0.7,0.5-1.2,1.1-1.7,1.8v6.6c0,0.8,0,1.7,0,2.6c0,0.9-0.1,1.7-0.4,2.4
			c-0.2,0.7-0.6,1.3-1.1,1.7c-0.5,0.4-1.3,0.6-2.3,0.6c-0.5,0-1-0.3-1.5-0.8c-0.4-0.5-0.7-1-0.8-1.5c-0.1-0.5-0.1-1-0.1-1.6
			c0-0.6-0.1-1.3-0.1-2c0-0.7,0-1.4,0-2.1c0-0.7,0-1.4,0-2V332.1z"/>
		<path class="st16" d="M114.3,327.9c0.3,0.4,0.4,0.9,0.4,1.4c0,0.7-0.1,1.3-0.4,1.8c-0.1,0.2-0.1,0.3-0.3,0.6
			c-0.1,0.2-0.2,0.5-0.3,0.8c-0.1,0.3-0.2,0.5-0.3,0.8c-0.1,0.2-0.2,0.4-0.3,0.5L113,334c-0.4,0.9-0.8,1.9-1.2,2.7
			c-0.4,0.9-0.8,1.8-1.3,2.8c-0.5,1-0.9,1.9-1.4,2.8c-0.4,0.9-0.9,1.8-1.3,2.7c-0.1,0.2-0.2,0.5-0.3,0.7c-0.1,0.2-0.2,0.5-0.4,0.7
			l-2.2,4.7c-0.4,0.8-0.8,1.6-1.1,2.3c-0.3,0.8-0.7,1.5-1.2,2.3c-0.1,0.2-0.2,0.3-0.3,0.4c-0.1,0.1-0.1,0.3-0.2,0.4
			c-0.2,0.4-0.5,0.7-0.9,1.1c-0.4,0.3-0.8,0.5-1.3,0.6c-0.8,0.1-1.5-0.2-2.1-0.7c-0.4-0.2-0.7-0.5-0.9-0.9c-0.1-0.3-0.2-0.6-0.2-1
			c0-0.2,0.1-0.4,0.1-0.5c0-0.2,0-0.3,0.1-0.5c0.1-0.2,0.1-0.3,0.1-0.5c0-0.2,0.1-0.3,0.1-0.4c0.1-0.2,0.2-0.4,0.2-0.4l3.3-7.2
			c-0.2-0.3-0.3-0.7-0.5-1c-0.2-0.3-0.3-0.7-0.4-0.9c-0.4-0.9-0.8-1.9-1.3-3c-0.4-1-0.9-2.1-1.3-3.1c-0.5-1-0.9-2.1-1.4-3.1
			c-0.5-1-1-2-1.5-2.9c-0.2-0.3-0.3-0.6-0.5-1c-0.2-0.3-0.3-0.7-0.4-1c-0.1-0.3-0.1-0.7-0.1-1.1c0-0.4,0.2-0.7,0.4-1.1
			c0.2-0.5,0.6-0.8,1-1c0.4-0.2,0.8-0.3,1.3-0.3s0.9,0.1,1.3,0.3c0.4,0.2,0.7,0.4,1,0.7c0.5,0.5,0.9,1.2,1.2,1.8
			c0.3,0.7,0.6,1.4,0.9,2c0.6,1.2,1.2,2.5,1.8,3.8c0.6,1.3,1.2,2.6,1.8,3.9l2.4-5c0.2-0.5,0.5-1,0.7-1.4c0.2-0.5,0.4-0.9,0.6-1.3
			c0.2-0.5,0.5-1,0.7-1.6c0.2-0.5,0.5-1,0.8-1.5c0.1-0.1,0.1-0.2,0.2-0.3c0.1-0.1,0.1-0.2,0.2-0.3c0.3-0.4,0.5-0.7,0.7-0.9
			c0.2-0.1,0.3-0.2,0.4-0.3c0.1-0.1,0.2-0.1,0.4-0.2c0.2-0.1,0.4-0.1,0.6-0.1c0.2,0,0.4,0,0.6,0c0.3,0.1,0.7,0.2,1.1,0.4
			C113.7,327.1,114.1,327.4,114.3,327.9z"/>
		<path class="st16" d="M156.1,319.8c0.3,0.4,0.4,0.8,0.5,1.3c0,0.2,0,0.4,0,0.5c0,0.2,0,0.3-0.1,0.5c0,0.3-0.2,0.7-0.6,1
			c-0.2,0.2-0.5,0.3-0.8,0.5c-0.2,0.1-0.4,0.1-0.6,0.1c-0.2,0-0.4,0-0.7,0.1c-0.2,0.1-0.4,0.1-0.6,0.1c-0.2,0-0.4,0-0.6,0h-2l-9.5,0
			v0.1l0,7.4c0.2,0,0.5,0,0.8,0c0.3,0,0.6,0,1.1,0c1.2,0,2.3,0,3.3,0s2,0,3.2,0h0.3c0.3,0,0.7,0,1,0c0.3,0,0.7,0,1.1,0
			c0.3,0,0.7,0.1,1,0.1c0.3,0,0.7,0.1,1,0.3c0.5,0.2,0.9,0.5,1.2,0.9c0.3,0.4,0.5,0.8,0.5,1.2c0,0.2,0,0.4,0,0.5
			c0,0.2,0,0.3-0.1,0.5c0,0.2-0.2,0.5-0.6,0.9c-0.2,0.2-0.5,0.3-0.9,0.4c-0.2,0.1-0.3,0.1-0.5,0.2c-0.2,0-0.4,0.1-0.6,0.1
			c-0.2,0-0.4,0.1-0.6,0.1c-0.2,0-0.4,0-0.7,0h-2.1l-8.4,0l-0.1,10.6v0.4c0,0.2,0,0.3,0,0.4c0,0.1,0,0.3-0.1,0.4
			c-0.1,0.2-0.1,0.3-0.2,0.5c0,0.2-0.1,0.3-0.2,0.5c-0.2,0.4-0.4,0.7-0.6,0.9c-0.3,0.2-0.7,0.4-1.2,0.5c-0.8,0.2-1.6,0.1-2.3-0.3
			c-0.2-0.1-0.3-0.2-0.4-0.3c-0.1-0.1-0.3-0.3-0.3-0.5c-0.1-0.1-0.1-0.2-0.1-0.3l-0.1-0.3c-0.1-0.2-0.2-0.3-0.2-0.5
			c0-0.2-0.1-0.3-0.1-0.5c0-0.2,0-0.3,0-0.5c0-0.2,0-0.3-0.1-0.5c0-0.2,0-0.5,0-0.7v-0.7l0-3.6l0-6.6c0-1,0-2,0-3c0-1,0-2,0-3.1
			c0-1.1,0-2.1,0-2.9c0-0.8,0.1-1.8,0.1-2.8v-0.2c0-0.3,0-0.6,0-0.9c0-0.3,0-0.6,0.1-0.9c0.1-0.7,0.2-1.3,0.5-1.8
			c0.2-0.5,0.5-0.9,0.9-1.1c0.5-0.3,0.9-0.4,1.5-0.4c0.2,0,0.4,0,0.6,0v0c0.5,0,1,0,1.3,0c0.3,0,0.7,0,1,0c0.3,0,0.6,0,1,0
			c0.4,0,0.8,0,1.5,0c2.4,0,4.8,0,7.2,0h0.2c0.3,0,0.7,0,1,0s0.7,0,1.1,0c0.3,0,0.7,0,1,0.1c0.3,0.1,0.7,0.2,1,0.3
			C155.4,319.2,155.8,319.5,156.1,319.8z"/>
		<path class="st16" d="M163.5,330.1c1-0.5,2-0.8,3.1-1c1.1-0.2,2.2-0.3,3.3-0.1c1.1,0.1,2.1,0.4,3.1,0.9c1,0.5,2,1.1,2.8,1.9
			c0.7,0.7,1.3,1.5,1.8,2.5c0.5,1,0.9,1.9,1.1,2.9c0.5,1.7,0.6,3.4,0.2,5.1s-1,3.3-1.9,4.7c-0.4,0.7-0.9,1.3-1.6,1.8
			c-0.6,0.5-1.3,1-2,1.3c-0.9,0.4-1.9,0.7-3,0.9c-1.1,0.2-2.1,0.2-3.1,0.1c-1.8-0.1-3.4-0.5-4.8-1.4c-1.4-0.8-2.5-1.9-3.3-3.1
			c-0.8-1.3-1.4-2.7-1.6-4.3c-0.3-1.6-0.2-3.3,0.3-5c0.5-1.8,1.2-3.3,2.1-4.4C161.1,331.6,162.2,330.7,163.5,330.1z M164.9,336.2
			c-0.5,0.4-0.8,1-1,1.6c-0.2,0.6-0.4,1.3-0.5,2c-0.1,0.7,0,1.4,0.2,2s0.4,1.3,0.8,1.8c0.3,0.5,0.8,0.8,1.6,1.1
			c0.8,0.3,1.6,0.5,2.5,0.5c1,0.1,1.8-0.2,2.6-0.8c0.7-0.6,1.3-1.3,1.7-2.2c0.4-0.9,0.6-1.8,0.5-2.9c0-1-0.3-2-0.8-2.8
			c-0.4-0.6-0.9-1.1-1.5-1.3c-0.7-0.3-1.3-0.4-2-0.5c-0.7,0-1.4,0.1-2.1,0.3C165.9,335.4,165.3,335.8,164.9,336.2z"/>
		<path class="st16" d="M182.9,334.6c0-0.4,0-0.8,0-1.3c0-0.5,0-1,0-1.5c0-0.5,0.1-1,0.2-1.5c0.1-0.5,0.2-0.9,0.3-1.3
			c0.2-0.5,0.6-0.9,1.1-1.1c0.5-0.2,1.1-0.3,1.7-0.2c0.6,0,1.1,0.1,1.5,0.3c0.4,0.2,0.6,0.5,0.8,0.8c0.2,0.3,0.3,0.7,0.3,1.2
			c0,0.4,0.1,0.9,0.1,1.4c0.3-0.5,0.6-0.9,1.1-1.2c0.5-0.3,0.9-0.5,1.4-0.7c0.5-0.2,0.9-0.3,1.3-0.4c0.4-0.1,0.6-0.1,0.7-0.1
			c0.8-0.1,1.4-0.1,2.1,0c0.6,0,1.3,0.2,2.1,0.4c0.5,0.2,1,0.4,1.5,0.8c0.5,0.3,1,0.7,1.4,1.1c0.4,0.4,0.7,0.9,0.8,1.4
			c0.1,0.5,0.1,1-0.2,1.6c-0.4,0.8-0.9,1.1-1.4,1.1s-1.1-0.1-1.7-0.2c-0.3-0.1-0.7-0.2-1.2-0.4c-0.5-0.2-0.9-0.3-1.2-0.4
			c-1-0.2-1.9-0.1-2.7,0.2c-0.8,0.3-1.5,0.7-2,1.1c-0.7,0.5-1.2,1.1-1.7,1.8v6.6c0,0.8,0,1.7,0,2.6c0,0.9-0.1,1.7-0.4,2.4
			c-0.2,0.7-0.6,1.3-1.1,1.7c-0.5,0.4-1.3,0.6-2.3,0.6c-0.5,0-1-0.3-1.5-0.8s-0.7-1-0.8-1.5c-0.1-0.5-0.1-1-0.1-1.6
			c0-0.6-0.1-1.3-0.1-2c0-0.7,0-1.4,0-2.1c0-0.7,0-1.4,0-2V334.6z"/>
		<path class="st16" d="M241,320.4c0,0.2,0,0.3,0,0.5c0,0.2-0.1,0.3-0.2,0.5c-0.1,0.4-0.3,0.8-0.4,1.1c-0.2,0.4-0.4,0.8-0.7,1.1
			c-0.1,0.2-0.2,0.4-0.3,0.5c-0.1,0.2-0.2,0.3-0.3,0.5l-0.6,0.8l-5.8,8.4l-1,1.3v12.1c-0.1,0.1-0.1,0.3-0.1,0.5c0,0.2,0,0.3,0,0.5
			c-0.1,0.2-0.1,0.3-0.1,0.4c0,0.1-0.1,0.3-0.1,0.4c-0.1,0.1-0.1,0.2-0.1,0.3c0,0.1-0.1,0.1-0.1,0.1c0,0,0,0.1-0.1,0.1
			c-0.2,0.3-0.4,0.6-0.8,0.8c-0.7,0.3-1.4,0.4-2.3,0.2c-0.5-0.1-0.8-0.2-1.1-0.5c-0.2-0.1-0.3-0.2-0.4-0.3c-0.1-0.1-0.2-0.3-0.3-0.4
			c-0.1-0.2-0.1-0.3-0.2-0.5c-0.1-0.2-0.1-0.3-0.1-0.5c-0.1-0.2-0.1-0.3-0.1-0.4c0-0.1,0-0.3,0-0.4v-12.4l-1-1.5l-5.9-8.4l-0.5-0.8
			c-0.2-0.3-0.4-0.6-0.7-1c-0.2-0.3-0.5-0.7-0.6-1.1c-0.1-0.2-0.2-0.4-0.3-0.6c-0.1-0.2-0.1-0.4-0.2-0.6c-0.1-0.3-0.1-0.6,0-0.9
			c0.1-0.4,0.3-0.7,0.5-1c0.3-0.3,0.6-0.5,1-0.6c0.4-0.3,0.9-0.4,1.5-0.4c0.3,0,0.6,0.1,0.9,0.2c0.2,0.1,0.5,0.3,0.7,0.4
			c0.3,0.2,0.5,0.4,0.8,0.7c0.3,0.2,0.5,0.5,0.7,0.8c0.2,0.3,0.5,0.6,0.7,0.8s0.4,0.6,0.6,0.9l0.1,0.2c0.7,1,1.4,1.9,2,2.8
			c0.6,0.9,1.3,1.9,2,2.9c0.1,0.1,0.2,0.2,0.3,0.4c0.1,0.2,0.3,0.4,0.4,0.6c0.1-0.2,0.2-0.4,0.3-0.6c0.1-0.2,0.2-0.3,0.3-0.3
			c0.7-1,1.4-2,2-2.9c0.6-0.9,1.3-1.9,2-2.8l0.1-0.2c0.2-0.3,0.5-0.6,0.7-0.8c0.2-0.3,0.4-0.6,0.7-0.9c0.4-0.5,0.9-1,1.6-1.4
			c0.5-0.3,1-0.5,1.5-0.6c0.6-0.1,1.1,0.1,1.5,0.4c0.2,0.1,0.4,0.2,0.5,0.3c0.2,0.1,0.3,0.2,0.4,0.3
			C240.6,319.7,240.8,320,241,320.4z"/>
		<path class="st16" d="M245.2,330.1c1-0.5,2.1-0.8,3.1-1c1.1-0.2,2.2-0.3,3.3-0.1c1.1,0.1,2.1,0.4,3.1,0.9c1,0.5,1.9,1.1,2.8,1.9
			c0.7,0.7,1.3,1.5,1.8,2.5c0.5,1,0.9,1.9,1.1,2.9c0.5,1.7,0.6,3.4,0.2,5.1c-0.4,1.7-1,3.3-1.9,4.7c-0.4,0.7-0.9,1.3-1.6,1.8
			c-0.6,0.5-1.3,1-2,1.3c-0.9,0.4-1.9,0.7-3,0.9c-0.4,0.1-0.8,0.1-1.2,0.1c-0.6,0-1.3,0-1.9,0c-1.8-0.1-3.4-0.5-4.8-1.4
			c-1.4-0.8-2.5-1.9-3.3-3.1c-0.8-1.3-1.4-2.7-1.6-4.3c-0.3-1.6-0.2-3.3,0.3-5c0.5-1.8,1.2-3.3,2.1-4.4
			C242.9,331.6,244,330.7,245.2,330.1z M246.6,336.2c-0.5,0.4-0.8,1-1,1.6c-0.2,0.6-0.4,1.3-0.5,2c-0.1,0.7,0,1.4,0.2,2
			c0.2,0.7,0.4,1.3,0.8,1.8c0.3,0.5,0.8,0.8,1.6,1.1c0.8,0.3,1.6,0.5,2.5,0.5c1,0.1,1.8-0.2,2.6-0.8c0.7-0.6,1.3-1.3,1.7-2.2
			c0.4-0.9,0.6-1.8,0.5-2.9c0-1-0.3-2-0.8-2.8c-0.4-0.6-0.9-1.1-1.5-1.3c-0.7-0.3-1.3-0.4-2-0.5c-0.7,0-1.4,0.1-2.1,0.3
			C247.7,335.4,247.1,335.8,246.6,336.2z"/>
		<path class="st16" d="M286.6,339.9c-0.1,1-0.1,2-0.2,3c-0.1,1-0.2,2-0.5,2.9c-0.3,0.9-0.7,1.8-1.2,2.5c-0.5,0.8-1.3,1.4-2.3,1.8
			c-0.8,0.4-1.8,0.7-2.7,0.9c-1,0.2-1.9,0.2-2.9,0.2c-1,0-1.9-0.2-2.8-0.4c-0.9-0.3-1.7-0.6-2.5-1.1c-0.7-0.5-1.3-1-1.8-1.8
			c-0.5-0.7-0.8-1.5-1.1-2.4c-0.3-0.8-0.4-1.7-0.5-2.6c-0.1-0.9-0.2-1.8-0.2-2.5c-0.1-2.1-0.1-4.2,0-6.2c0-0.4,0-0.8,0-1.3
			c0-0.5,0-1,0.1-1.5c0.1-0.5,0.2-0.9,0.4-1.3c0.2-0.4,0.5-0.7,0.9-0.9c0.9-0.5,1.8-0.5,2.5-0.1c0.8,0.4,1.2,1.3,1.4,2.6
			c0.1,0.7,0.1,1.5,0.1,2.3s0,1.6,0.1,2.3c0,1,0.1,2.1,0.1,3.3c0,1.2,0.2,2.3,0.5,3.2c0.3,0.9,0.8,1.6,1.6,2.1
			c0.7,0.5,1.9,0.5,3.3,0.1c0.7-0.2,1.2-0.7,1.4-1.6c0.2-0.8,0.3-2.1,0.3-3.8c0-0.7,0-1.5,0-2.4c0-0.9,0-1.8,0-2.6
			c0-0.9,0-1.7,0.1-2.4c0-0.7,0.1-1.3,0.2-1.7c0.2-0.5,0.5-1,1-1.2c0.5-0.3,1-0.4,1.5-0.4c0.5,0,1.1,0.1,1.5,0.3
			c0.5,0.2,0.8,0.6,1,1.2c0.2,0.5,0.3,1.1,0.4,1.8c0.1,0.7,0.1,1.5,0.2,2.4c0,0.9,0,1.7,0,2.6C286.6,338.3,286.6,339.1,286.6,339.9z
			"/>
	</g>
</g>
</svg>
